<?xml version="1.0" standalone="no"?>
<!DOCTYPE svg PUBLIC "-//W3C//DTD SVG 20010904//EN" "http://www.w3.org/TR/2001/REC-SVG-20010904/DTD/svg10.dtd">
<svg version="1.0" xmlns="http://www.w3.org/2000/svg" width="1024.000000pt" height="1024.000000pt"
    viewBox="0 0 1024.000000 1024.000000" preserveAspectRatio="xMidYMid meet">

    <g transform="translate(0.000000,1024.000000) scale(0.100000,-0.100000)" fill="#222f5b" stroke="none">
        <path d="M4978 9210 c-21 -4 -56 -15 -79 -25 -39 -18 -40 -20 -34 -54 6 -30
23 -232 21 -238 -2 -3 -250 -22 -253 -19 -2 2 -6 72 -10 155 -3 83 -10 154
-14 157 -20 12 -219 -43 -219 -61 0 -2 9 -19 20 -37 18 -31 38 -106 54 -200 6
-31 4 -38 -9 -38 -23 0 -65 -45 -65 -69 0 -19 5 -20 44 -15 43 6 43 6 49 -27
16 -90 28 -243 25 -308 l-3 -71 29 0 c42 0 100 19 131 44 l27 22 -20 124 c-12
69 -23 150 -27 182 -7 67 -14 64 138 74 l107 6 0 -180 c0 -99 4 -192 10 -206
9 -24 15 -26 65 -26 72 0 130 23 120 47 -30 80 -38 534 -11 683 17 95 9 101
-96 80z" />
        <path d="M3985 9053 c-54 -22 -122 -69 -136 -94 -8 -16 -5 -42 11 -111 11 -51
17 -95 13 -99 -5 -4 -17 -9 -28 -11 -15 -2 -20 -11 -20 -33 0 -17 5 -29 10
-28 6 1 22 4 37 8 25 6 28 4 38 -37 53 -195 79 -460 56 -560 -11 -51 10 -51
65 -1 97 88 106 156 51 388 -61 256 -60 244 -23 251 32 7 61 36 61 62 0 14
-15 14 -83 -3 -24 -6 -25 -5 -36 72 -14 95 -3 144 39 175 51 37 17 50 -55 21z" />
        <path d="M5334 8911 c-90 -15 -144 -61 -130 -114 7 -30 50 -49 102 -45 36 3
39 6 42 35 4 40 34 63 80 63 56 0 72 -15 72 -65 0 -50 2 -49 -110 -66 -139
-21 -226 -82 -237 -166 -11 -82 37 -136 130 -149 58 -8 133 23 143 60 9 38 -3
48 -46 41 -31 -5 -43 -2 -59 14 -56 56 9 134 119 143 l45 3 -3 -127 -4 -128
27 -10 c14 -5 51 -10 82 -10 49 0 54 2 47 18 -12 22 -11 211 0 329 8 90 8 92
-17 116 -45 46 -182 73 -283 58z" />
        <path d="M5747 8758 c-7 -126 -33 -290 -56 -350 -13 -34 -5 -40 60 -40 74 1
99 21 99 80 0 78 29 253 47 291 21 43 60 60 98 43 30 -14 32 -42 9 -97 -27
-65 -4 -98 75 -111 30 -5 42 -3 45 7 2 8 11 47 20 87 14 63 14 77 2 106 -24
57 -141 92 -228 68 -30 -8 -40 -7 -50 5 -15 19 -70 43 -96 43 -17 0 -20 -12
-25 -132z" />
        <path d="M6257 8803 c-4 -3 -7 -22 -7 -41 0 -57 -47 -273 -81 -367 -35 -101
-34 -105 46 -105 72 0 91 17 99 87 9 76 48 229 70 270 18 35 50 49 91 39 36
-9 43 -49 16 -97 -12 -22 -21 -49 -19 -61 4 -27 44 -57 88 -64 l35 -6 23 74
c31 103 29 129 -12 166 -48 42 -97 56 -172 49 -56 -5 -64 -4 -69 12 -9 30 -90
63 -108 44z" />
        <path d="M3642 8704 c-103 -27 -206 -77 -254 -122 -26 -25 -46 -48 -43 -52 3
-5 28 1 57 12 28 10 79 20 113 21 52 2 68 -3 102 -25 53 -35 85 -103 86 -183
1 -76 -20 -119 -67 -135 -111 -36 -223 150 -171 283 22 55 -88 -23 -111 -80
-30 -71 -11 -169 44 -226 41 -43 75 -57 141 -57 115 0 227 64 270 155 25 54
28 149 5 203 -20 50 -70 99 -113 113 l-35 12 54 49 54 48 -40 -1 c-21 0 -63
-7 -92 -15z" />
        <path d="M2754 8661 c-41 -25 -114 -95 -114 -109 0 -7 7 -12 15 -12 38 0 75
-32 110 -96 20 -36 33 -69 29 -74 -5 -4 -25 -13 -46 -19 -49 -16 -122 -82
-147 -134 -48 -99 -17 -252 69 -338 80 -80 158 -83 232 -9 41 40 48 73 24 106
-14 18 -16 18 -44 2 -44 -26 -76 -22 -110 12 -66 66 -92 182 -57 250 16 31 61
60 93 60 31 0 47 -27 106 -174 84 -207 93 -215 187 -175 51 22 60 38 33 60
-23 19 -86 148 -164 339 -98 240 -141 324 -165 328 -11 1 -34 -6 -51 -17z" />
        <path d="M6660 8656 c0 -7 6 -19 14 -25 30 -25 65 -247 66 -415 l0 -80 -79
-77 c-43 -42 -82 -86 -86 -98 -11 -36 47 -108 101 -125 19 -6 22 -2 26 43 12
123 99 230 322 396 164 122 229 200 197 239 -20 24 -171 56 -206 42 -15 -5
-13 -10 9 -37 29 -34 30 -39 16 -91 -12 -40 -127 -168 -152 -168 -19 0 -28 77
-28 234 0 137 -4 152 -42 165 -47 17 -158 14 -158 -3z" />
        <path d="M7607 8563 c-3 -37 -20 -93 -47 -153 -57 -131 -198 -396 -238 -448
-26 -35 -31 -47 -21 -58 14 -18 102 -44 146 -44 32 0 36 4 55 53 38 93 192
390 246 474 58 89 62 91 138 49 108 -59 141 -144 89 -232 -42 -72 -124 -83
-180 -24 -35 36 -39 37 -70 5 -51 -51 -22 -116 77 -170 116 -64 269 -20 332
94 62 115 9 251 -137 350 -83 56 -324 161 -371 161 -9 0 -15 -18 -19 -57z" />
        <path d="M2182 8354 c-32 -26 -102 -110 -102 -124 0 -4 18 -10 39 -14 27 -4
48 -16 69 -40 63 -72 181 -263 293 -476 14 -25 31 -46 40 -48 24 -4 130 38
136 54 3 8 -1 20 -9 27 -28 23 -86 113 -198 307 -167 289 -199 340 -218 340
-9 0 -32 -12 -50 -26z" />
        <path d="M3621 8087 c-8 -11 -5 -19 14 -37 38 -35 33 -76 -16 -141 -59 -77
-77 -124 -85 -216 l-7 -81 -50 -23 c-27 -13 -77 -43 -110 -66 -34 -24 -69 -43
-78 -43 -10 0 -31 12 -48 26 -27 22 -31 33 -31 72 0 26 4 54 9 62 29 44 -57
21 -99 -27 -53 -59 -68 -150 -44 -248 4 -15 -2 -25 -21 -35 -41 -22 -59 -66
-59 -145 0 -70 19 -122 69 -191 15 -21 14 -22 -34 -28 -56 -7 -113 -29 -154
-58 -16 -11 -30 -19 -31 -17 -2 2 -11 27 -20 56 -24 74 -92 145 -173 184 -55
26 -79 32 -142 33 -65 1 -85 -3 -134 -28 -65 -31 -97 -72 -97 -123 0 -22 6
-36 19 -43 31 -16 37 -12 50 30 14 47 34 60 94 60 52 0 63 -11 101 -95 41 -91
94 -139 190 -169 13 -4 16 -11 11 -24 -4 -9 -10 -29 -12 -43 -5 -25 -8 -26
-43 -22 -36 5 -39 4 -66 -43 -32 -54 -43 -136 -26 -197 12 -41 6 -45 -36 -23
-58 29 -152 26 -152 -5 0 -6 11 -24 25 -41 17 -20 25 -42 25 -67 0 -66 21
-155 51 -215 16 -33 29 -60 29 -62 0 -1 -12 -4 -27 -6 -48 -6 -68 -48 -68
-144 0 -79 -1 -84 -15 -64 -8 12 -30 39 -49 61 l-33 39 21 78 c38 141 24 300
-37 422 -46 91 -82 120 -155 120 -87 0 -148 -59 -132 -128 8 -37 30 -58 71
-66 65 -14 104 -86 112 -203 2 -46 1 -83 -3 -83 -4 0 -24 13 -44 29 -104 82
-266 140 -433 156 -75 6 -78 6 -78 -15 0 -11 7 -34 15 -50 l16 -30 -43 0 c-71
1 -131 19 -177 56 -41 31 -46 33 -60 19 -24 -24 -28 -164 -7 -220 60 -156 297
-191 544 -80 63 28 64 28 96 11 82 -44 265 -225 238 -234 -6 -2 -41 12 -79 31
-94 47 -210 90 -223 82 -42 -26 30 -91 185 -169 116 -59 226 -138 211 -153 -3
-3 -21 0 -41 7 -21 7 -64 10 -97 8 -49 -4 -64 -9 -90 -35 -42 -43 -50 -108
-17 -146 25 -28 93 -47 171 -47 54 0 72 -12 117 -79 22 -32 62 -78 90 -104 28
-25 51 -48 51 -51 0 -3 -183 -6 -407 -6 l-406 0 -37 38 c-36 39 -84 109 -148
216 -18 31 -40 56 -48 56 -10 0 -30 -31 -52 -80 -20 -44 -40 -80 -44 -80 -12
0 -43 67 -93 204 -49 136 -72 186 -112 248 -50 74 -81 54 -109 -68 -16 -74
-15 -183 2 -273 l7 -35 -42 35 c-67 54 -83 61 -120 48 -24 -9 -30 -16 -25 -28
3 -9 22 -83 40 -165 19 -83 41 -163 49 -179 8 -17 13 -32 11 -34 -2 -2 -23 1
-47 6 -55 13 -146 14 -153 2 -13 -21 154 -280 196 -302 26 -14 22 -26 -10 -32
-16 -3 -39 -15 -53 -26 -19 -16 -22 -23 -13 -37 15 -26 114 -92 146 -99 37 -9
35 -20 -7 -47 -19 -13 -35 -28 -35 -35 0 -18 68 -53 116 -60 24 -3 44 -8 44
-10 0 -3 -11 -14 -25 -24 -14 -12 -22 -26 -18 -35 7 -20 76 -54 108 -54 22 0
24 -3 15 -19 -5 -11 -10 -22 -10 -26 0 -13 129 -66 210 -86 47 -12 87 -23 89
-25 4 -4 -137 -70 -247 -116 -74 -31 -94 -50 -73 -71 25 -25 10 -34 -64 -40
-42 -4 -90 -14 -108 -23 -164 -83 -178 -304 -25 -414 48 -35 163 -74 368 -124
191 -46 256 -54 565 -61 143 -3 270 -8 283 -11 30 -6 28 -25 -7 -58 -17 -16
-31 -40 -33 -55 l-3 -26 -360 -5 c-279 -4 -364 -2 -376 7 -26 21 -66 15 -87
-12 l-20 -26 -34 21 c-59 36 -136 21 -190 -36 -73 -79 -62 -202 24 -254 48
-29 112 -36 160 -17 38 16 42 15 66 -3 29 -23 59 -26 81 -6 14 12 134 13 810
9 l795 -6 70 -61 c203 -176 399 -319 586 -429 124 -72 391 -206 505 -252 227
-92 534 -189 698 -219 81 -16 89 -15 173 4 533 125 980 318 1404 608 149 102
187 131 305 238 50 44 101 88 115 97 22 14 111 16 815 18 587 2 796 -1 812 -9
31 -17 50 -15 73 8 20 20 23 20 67 5 87 -30 176 3 212 79 37 76 22 146 -42
203 -55 48 -143 56 -183 16 -14 -14 -18 -13 -43 11 -27 26 -74 35 -86 16 -4
-6 -137 -10 -365 -10 l-358 0 -7 30 c-4 16 -17 40 -31 52 -30 29 -31 56 -1 62
12 3 138 7 281 11 188 4 290 11 375 25 143 25 426 102 490 134 118 60 181 205
136 313 -42 101 -109 145 -225 149 -41 2 -77 3 -79 3 -2 1 4 13 14 27 9 14 14
31 12 38 -3 7 -50 32 -104 56 -54 24 -120 53 -148 65 -27 13 -58 26 -68 29
-30 10 -10 23 45 30 52 7 212 66 232 86 7 7 7 17 -2 30 -11 18 -10 20 10 20
30 1 99 32 117 53 11 14 8 19 -25 39 l-39 23 55 8 c53 7 130 47 130 67 0 5
-19 22 -42 36 -42 27 -43 27 -18 37 64 24 88 38 128 72 23 20 42 41 42 46 0
14 -62 49 -88 49 -21 0 -16 8 40 69 61 66 158 228 158 265 0 20 -29 20 -125 2
-38 -8 -72 -12 -74 -10 -2 2 1 16 8 31 15 36 81 366 75 372 -2 3 -20 5 -40 4
-24 -1 -48 -12 -78 -37 -25 -20 -49 -36 -54 -36 -6 0 -4 19 4 47 28 91 10 276
-32 341 -11 17 -19 20 -33 13 -32 -18 -91 -115 -126 -212 -20 -51 -54 -139
-77 -194 l-42 -100 -40 88 c-23 48 -46 87 -53 87 -14 0 -48 -44 -88 -115 -44
-77 -113 -164 -145 -180 -24 -13 -92 -15 -415 -15 -212 0 -385 4 -385 8 0 4
23 30 51 57 28 28 64 74 81 102 16 29 34 55 38 58 5 3 46 10 92 16 142 17 178
38 178 104 0 35 -30 89 -58 104 -46 25 -111 31 -154 16 -23 -8 -44 -12 -46
-10 -16 15 79 103 138 128 184 78 260 129 260 173 0 14 -6 24 -14 24 -18 0
-153 -52 -235 -91 -35 -16 -66 -28 -69 -25 -7 8 70 89 167 175 82 74 84 74
115 62 209 -85 367 -102 481 -52 97 43 134 102 135 214 0 65 -20 137 -38 137
-5 0 -19 -12 -33 -26 -13 -14 -39 -32 -57 -39 -35 -15 -162 -35 -175 -28 -4 2
2 16 13 30 28 36 27 73 -2 73 -39 -1 -160 -20 -223 -35 -69 -18 -187 -72 -252
-115 -24 -17 -46 -30 -49 -30 -10 0 -3 120 10 163 20 68 51 105 96 117 129 35
66 190 -76 190 -43 0 -51 -4 -90 -44 -28 -30 -52 -71 -75 -128 -30 -77 -33
-92 -34 -198 0 -63 6 -148 14 -188 14 -69 13 -73 -6 -95 -12 -12 -30 -37 -40
-54 l-19 -32 0 82 c1 66 -3 89 -20 117 -16 28 -26 34 -47 32 -27 -3 -39 20
-17 33 20 12 60 166 60 232 0 53 4 71 20 88 12 13 18 29 14 38 -8 22 -85 23
-144 2 -39 -14 -42 -14 -35 3 5 9 10 46 12 82 4 56 1 72 -24 119 -33 65 -54
81 -82 64 -22 -14 -31 -1 -31 45 0 22 9 32 48 54 66 37 106 83 141 160 33 72
60 98 103 98 48 0 75 -17 91 -58 21 -52 34 -59 60 -34 18 19 19 25 9 61 -25
80 -140 140 -244 127 -155 -21 -260 -101 -306 -234 -18 -51 -19 -52 -36 -33
-28 31 -98 59 -164 67 -34 3 -62 8 -62 9 0 1 15 18 34 38 91 97 87 279 -7 325
-24 12 -26 16 -15 35 20 38 14 137 -11 190 -27 56 -73 97 -108 97 -22 0 -24
-3 -19 -22 4 -13 10 -41 13 -64 5 -36 2 -43 -27 -67 -17 -15 -38 -27 -46 -27
-7 0 -35 16 -61 36 -25 19 -77 51 -114 70 l-67 33 -7 58 c-10 94 -24 134 -76
206 -28 37 -54 78 -58 90 -11 28 9 81 34 91 30 11 -2 36 -47 36 -28 0 -46 -7
-65 -26 -22 -22 -25 -32 -21 -78 4 -48 10 -59 72 -130 37 -42 71 -88 76 -102
12 -30 13 -124 2 -124 -4 0 -23 30 -42 68 l-35 67 -3 -62 c-2 -46 -7 -63 -17
-63 -29 0 -38 40 -31 139 7 104 -1 134 -28 112 -17 -14 -34 -68 -45 -139 l-6
-43 -65 126 c-75 145 -102 175 -163 175 -53 0 -99 -28 -134 -81 -55 -82 -87
-109 -132 -109 -22 0 -63 9 -91 20 -62 24 -60 24 -60 1 0 -29 63 -78 122 -96
110 -32 212 -16 297 49 19 14 42 26 51 26 9 0 32 -28 55 -67 21 -38 56 -92 77
-121 40 -54 42 -72 7 -72 -11 0 -42 -23 -70 -52 -43 -45 -54 -51 -91 -52 -37
-1 -44 -4 -52 -29 -14 -38 11 -57 74 -57 49 0 68 10 123 65 19 19 41 35 49 35
8 0 32 -15 54 -34 l39 -34 -64 5 c-56 5 -63 4 -60 -12 2 -9 31 -32 64 -50 80
-44 135 -93 178 -158 35 -52 76 -94 127 -129 25 -17 24 -17 -43 -17 -53 -1
-69 -5 -74 -17 -8 -22 23 -46 117 -92 70 -34 82 -37 194 -42 l119 -5 18 -35
19 -35 -29 -8 c-54 -13 -48 -69 9 -80 19 -4 30 -13 30 -24 0 -9 8 -44 17 -77
21 -77 82 -141 165 -175 38 -15 58 -29 62 -44 11 -43 7 -47 -26 -27 -34 19
-110 42 -186 55 l-43 7 7 -82 c6 -66 4 -82 -6 -78 -7 2 -44 57 -82 122 -88
154 -215 311 -374 466 -139 135 -260 233 -367 299 -84 51 -260 140 -347 175
-142 58 -385 119 -610 153 l-55 8 -7 50 c-8 50 -86 428 -94 454 -10 30 -22
-11 -73 -234 -29 -126 -56 -241 -60 -255 -7 -23 -15 -26 -102 -37 -292 -39
-617 -163 -884 -338 -175 -114 -468 -396 -587 -564 -36 -50 -92 -139 -124
-196 -32 -57 -62 -105 -66 -105 -5 0 -8 36 -8 80 0 74 -1 80 -21 80 -34 0
-182 -40 -207 -56 -23 -15 -23 -15 -20 17 3 30 9 35 58 55 102 41 162 115 176
217 6 42 9 46 43 54 29 7 37 14 39 36 3 24 -2 30 -27 40 -36 13 -36 13 -12 53
18 30 19 30 112 31 112 1 196 25 282 79 78 49 75 69 -12 69 -35 0 -65 5 -67
10 -1 6 16 24 39 40 22 17 67 67 98 111 38 53 75 92 107 113 27 17 52 31 57
31 16 0 75 51 75 66 0 17 -46 19 -86 4 -15 -6 -30 -8 -33 -4 -10 10 58 64 81
64 12 0 46 -23 79 -55 70 -66 103 -72 151 -25 43 43 35 66 -23 62 -42 -2 -47
0 -79 39 -18 23 -52 50 -76 61 -24 10 -44 21 -44 24 0 3 18 28 39 57 22 29 56
84 77 122 20 39 38 71 39 73 1 1 33 -18 70 -43 81 -53 110 -60 210 -50 88 8
172 46 195 87 8 15 12 29 9 32 -2 3 -31 -4 -63 -15 -111 -36 -149 -23 -207 68
-43 69 -87 103 -133 103 -54 0 -88 -33 -152 -147 -34 -59 -64 -118 -68 -130
-12 -39 -26 -25 -26 25 0 47 -28 123 -50 137 -26 16 -33 -13 -20 -92 14 -86 8
-151 -16 -160 -22 -8 -26 0 -33 64 l-6 58 -23 -55 c-31 -74 -38 -86 -48 -80
-14 8 -4 111 14 150 9 19 40 58 68 87 80 81 93 147 37 199 -29 27 -93 33 -112
11z m493 -199 c41 -41 47 -53 33 -56 -33 -7 -137 74 -122 97 13 22 39 10 89
-41z m1960 46 c19 -7 21 -34 3 -34 -8 0 -22 -10 -33 -21 -16 -19 -72 -49 -89
-49 -16 0 0 35 31 70 35 39 55 47 88 34z m-1024 -252 c0 -15 15 -103 34 -197
124 -606 195 -1000 182 -1012 -2 -3 -26 2 -53 11 -26 9 -79 20 -117 25 -37 5
-71 13 -75 16 -3 4 -6 133 -6 288 1 569 11 911 26 901 5 -3 9 -17 9 -32z
m-1310 -107 c0 -3 -15 -30 -34 -59 -41 -65 -77 -91 -136 -101 -25 -4 -78 -25
-118 -46 -41 -22 -84 -39 -97 -39 l-23 0 18 38 c21 42 105 126 165 162 21 13
59 30 85 36 46 13 140 18 140 9z m2797 -16 c24 -12 68 -43 98 -71 51 -47 125
-137 125 -153 0 -15 -77 8 -121 36 -25 16 -71 38 -101 48 -31 11 -68 27 -83
37 -27 18 -85 95 -85 113 0 20 120 13 167 -10z m-3287 -152 c23 -16 24 -18 12
-64 -7 -26 -15 -50 -18 -52 -6 -6 -60 56 -80 92 -8 15 -18 51 -21 80 l-6 52
44 -46 c24 -25 55 -53 69 -62z m3715 56 c-13 -74 -81 -183 -104 -169 -5 4 -12
25 -16 48 -7 41 -6 43 51 99 33 31 63 57 68 58 4 0 5 -16 1 -36z m-2098 -85
c-3 -13 -17 -81 -31 -153 -14 -71 -32 -159 -40 -195 -8 -36 -24 -119 -36 -185
-12 -66 -30 -165 -40 -220 -37 -195 -37 -180 10 -212 l41 -28 -5 -67 c-4 -53
-2 -68 9 -68 21 0 7 -76 -29 -149 -17 -36 -37 -66 -43 -68 -7 -3 -15 28 -23
84 -6 48 -13 94 -15 101 -6 18 -34 14 -85 -11 l-45 -23 3 -75 c3 -59 0 -78
-12 -88 -8 -7 -20 -10 -26 -6 -13 8 -14 357 0 371 5 5 10 54 12 109 2 87 -5
135 -50 363 -29 145 -57 273 -63 284 -18 33 -35 4 -48 -80 -15 -99 -78 -416
-91 -462 -13 -45 -13 -100 0 -100 6 0 10 -26 10 -58 0 -32 5 -63 10 -68 7 -7
9 -90 8 -230 l-3 -219 -58 -28 c-32 -16 -60 -27 -62 -25 -2 2 -10 84 -19 183
-34 377 -42 429 -73 423 -14 -2 -21 -26 -35 -118 -18 -120 -48 -504 -48 -614
0 -77 -6 -96 -31 -96 -23 0 -23 3 -4 40 17 33 6 47 -25 30 -11 -6 -21 -12 -22
-13 -1 -1 -4 -87 -7 -192 l-6 -189 -45 -17 c-43 -16 -45 -18 -48 -60 -1 -24
-7 -68 -13 -96 l-10 -53 -364 0 -364 0 -8 48 c-12 73 -9 408 6 492 37 216 108
433 198 600 152 280 304 473 523 663 278 240 586 393 950 471 149 32 154 32
147 4z m528 -14 c315 -66 626 -211 870 -408 406 -328 687 -773 779 -1231 35
-178 44 -371 24 -531 l-11 -94 -231 0 c-154 0 -264 -5 -330 -15 -55 -8 -114
-15 -132 -15 l-33 0 -3 137 c-3 137 -3 137 -28 143 -25 6 -25 6 -25 127 l0
121 -34 43 -35 42 -33 -38 -33 -38 0 -124 c0 -75 -4 -123 -10 -123 -6 0 -10
33 -11 78 0 42 -2 161 -5 264 -5 180 -5 186 16 201 24 17 22 32 -32 222 -60
215 -70 246 -76 240 -17 -17 -122 -395 -122 -439 0 -15 7 -26 20 -29 14 -4 20
-14 20 -35 0 -17 5 -34 10 -37 6 -3 10 -35 10 -69 l0 -64 -47 6 c-26 3 -70 10
-98 16 l-50 11 -8 120 c-7 101 -6 124 7 147 10 16 16 50 16 92 0 37 5 75 12
85 10 16 7 41 -15 133 -31 128 -71 299 -87 373 -22 98 -42 155 -54 155 -8 0
-22 -32 -35 -77 -38 -138 -78 -295 -111 -433 l-32 -134 21 -17 c14 -12 21 -29
21 -53 0 -20 -1 -36 -2 -36 -2 0 -25 8 -53 19 -27 10 -65 21 -82 24 -32 6 -33
6 -33 -29 0 -40 2 -41 101 -58 40 -7 74 -17 76 -23 4 -11 -43 -4 -224 33 l-83
17 0 93 c0 88 1 93 23 96 20 3 22 9 25 68 3 63 5 66 43 92 27 19 39 35 39 51
0 23 -88 515 -109 608 -5 24 -19 98 -30 164 -12 66 -24 131 -28 144 -6 24 -6
24 53 17 32 -4 113 -19 179 -32z m-1809 -29 c-22 -17 -46 -20 -46 -6 0 11 18
19 45 20 20 0 20 0 1 -14z m2965 5 c5 0 9 -4 9 -10 0 -12 -47 -13 -54 -1 -8
12 6 22 22 16 7 -3 18 -5 23 -5z m-3042 -81 c17 -6 31 -16 31 -23 0 -19 -110
-117 -154 -137 -38 -17 -86 -25 -86 -14 0 3 23 27 52 55 28 27 49 52 46 56 -3
3 -29 -6 -57 -20 -61 -31 -71 -32 -71 -5 0 21 51 75 85 89 29 13 117 12 154
-1z m3271 -11 c36 -26 68 -73 57 -85 -4 -4 -37 8 -74 26 -36 17 -68 30 -71 27
-2 -3 23 -33 58 -66 34 -34 60 -64 57 -66 -22 -22 -158 49 -221 115 -49 52
-28 67 95 70 54 1 72 -3 99 -21z m-3616 -59 c44 -49 59 -83 73 -163 l6 -38
-34 17 c-99 50 -155 149 -133 232 8 30 28 19 88 -48z m3872 -34 c-8 -40 -52
-95 -110 -137 -49 -35 -56 -35 -56 3 0 51 55 153 108 199 l47 42 9 -36 c4 -20
5 -52 2 -71z m461 -157 c-14 -30 -35 -65 -48 -77 -20 -19 -94 -61 -107 -61 -8
0 10 74 24 102 23 44 143 122 152 98 2 -4 -8 -32 -21 -62z m-4854 41 c55 -28
85 -56 108 -101 25 -48 24 -58 -4 -58 -44 0 -89 35 -129 100 -53 89 -50 97 25
59z m732 -49 c-3 -5 -15 -10 -26 -10 -10 0 -19 5 -19 10 0 6 12 10 26 10 14 0
23 -4 19 -10z m3383 -7 c-10 -2 -28 -2 -40 0 -13 2 -5 4 17 4 22 1 32 -1 23
-4z m-3628 -82 c0 -5 -9 -13 -21 -16 -12 -4 -29 -25 -39 -48 -22 -50 -65 -92
-140 -140 -30 -19 -64 -44 -74 -56 -29 -32 -36 -26 -36 27 0 99 69 192 167
228 44 15 143 19 143 5z m3974 -5 c83 -25 121 -58 161 -138 28 -57 34 -80 29
-105 -7 -36 -15 -41 -33 -19 -7 8 -47 37 -91 66 -58 38 -88 65 -111 103 -18
29 -44 64 -58 80 l-25 27 41 0 c22 0 61 -6 87 -14z m-2683 -139 c9 -62 19
-127 23 -144 7 -32 6 -33 -23 -33 l-31 0 0 152 c0 83 3 148 7 144 4 -4 15 -58
24 -119z m2776 -176 c28 -20 30 -51 5 -51 -39 0 -142 96 -142 132 0 7 81 -41
137 -81z m-4167 64 c0 -38 -129 -141 -145 -114 -11 17 22 56 77 94 58 39 68
42 68 20z m2656 -185 c19 -90 44 -187 55 -215 10 -27 19 -51 19 -53 0 -1 -10
0 -22 2 -13 3 -44 8 -71 11 -42 6 -46 8 -37 25 5 10 10 30 10 44 0 16 6 26 15
26 22 0 18 17 -5 23 -27 7 -25 33 3 42 l22 8 -22 4 c-25 5 -31 31 -11 51 9 9
9 15 0 24 -13 13 -17 170 -5 182 9 9 5 23 49 -174z m1748 70 c1 -61 -2 -70
-48 -143 -26 -43 -52 -75 -56 -70 -14 14 -40 115 -40 152 0 47 29 93 82 131
39 28 43 29 52 13 5 -10 10 -47 10 -83z m-4693 49 c22 -22 47 -56 55 -75 19
-45 17 -122 -5 -162 l-17 -33 -36 53 c-56 85 -70 119 -71 167 0 52 10 91 24
91 5 0 27 -18 50 -41z m1734 -40 c4 -6 5 -12 3 -15 -8 -8 -158 9 -158 17 0 13
148 11 155 -2z m-108 -66 c-3 -15 -3 -33 0 -40 8 -21 23 -4 23 28 0 26 3 29
34 29 31 0 34 -3 41 -36 3 -20 3 -40 -2 -44 -4 -5 -31 -6 -60 -3 l-51 5 -4 40
c-4 40 -1 48 15 48 5 0 7 -12 4 -27z m-2141 -20 c13 -8 41 -49 61 -90 32 -65
37 -86 41 -161 2 -48 0 -103 -6 -122 -8 -32 -10 -26 -16 55 -9 110 -29 185
-63 236 -27 40 -63 69 -87 69 -21 0 -31 21 -15 31 17 11 53 4 85 -18z m5722
21 c32 -9 27 -31 -12 -44 -80 -26 -117 -108 -126 -280 -5 -100 -8 -119 -15
-95 -6 17 -10 80 -10 140 0 105 2 114 33 177 31 63 71 108 96 108 6 0 21 -3
34 -6z m-2772 -25 c23 -8 34 -45 34 -116 0 -39 -2 -44 -17 -38 -57 22 -164 36
-232 30 -73 -6 -74 -6 -67 17 3 13 6 44 6 70 0 45 1 47 33 51 46 5 218 -4 243
-14z m-2536 -145 c49 -44 80 -108 80 -162 0 -43 -20 -132 -30 -132 -12 1 -101
129 -121 175 -13 28 -24 79 -27 118 l-5 69 32 -17 c18 -9 50 -32 71 -51z
m1794 34 c3 -18 7 -105 8 -193 3 -158 3 -159 -20 -171 -33 -16 -45 -30 -60
-67 -11 -29 -12 -26 -7 38 3 39 5 109 5 158 0 56 4 87 11 87 6 0 13 -9 16 -20
7 -28 23 -25 23 5 0 36 -3 40 -27 37 -22 -3 -23 -1 -23 77 l0 81 35 0 c31 0
35 -3 39 -32z m3127 -55 c-13 -82 -66 -195 -115 -242 -20 -19 -38 -32 -41 -30
-3 3 -12 35 -21 70 -20 81 -8 133 42 189 39 43 137 105 142 90 2 -6 -1 -40 -7
-77z m-4551 65 c-1 -25 -36 -56 -87 -78 -29 -12 -58 -28 -64 -36 -13 -16 -29
-18 -29 -4 0 21 64 80 112 104 59 29 68 31 68 14z m4171 -34 c38 -23 83 -73
74 -82 -2 -3 -15 2 -27 10 -13 8 -40 20 -60 27 -34 11 -88 61 -88 81 0 12 57
-8 101 -36z m-2055 -55 c11 -9 14 -63 14 -260 l0 -249 -30 0 -30 0 0 61 c0 54
-2 60 -19 54 -10 -3 -23 1 -30 9 -7 8 -23 17 -36 20 -21 5 -25 12 -25 47 0 22
-6 72 -14 112 -25 125 -27 146 -20 181 5 28 12 36 33 40 41 7 142 -3 157 -15z
m-2106 -51 c0 -7 -13 -41 -29 -74 -32 -67 -66 -99 -151 -138 -90 -42 -96 -36
-52 52 30 61 69 95 157 140 68 35 75 37 75 20z m4158 -36 c58 -28 96 -66 137
-136 40 -68 32 -80 -35 -51 -75 31 -130 82 -168 153 -18 33 -32 63 -32 67 0 9
37 -3 98 -33z m-3082 -150 c16 -171 16 -171 -5 -198 -12 -15 -21 -33 -21 -40
0 -7 -4 -16 -10 -19 -6 -4 -10 17 -10 54 0 50 3 61 16 61 13 0 14 3 5 14 -9
10 -10 55 -5 160 4 81 9 145 11 143 2 -2 10 -81 19 -175z m542 156 c-3 -24
-34 -36 -50 -20 -11 11 16 42 38 42 10 0 14 -8 12 -22z m1407 -25 c4 -27 16
-79 26 -118 10 -38 19 -81 19 -95 0 -24 -3 -26 -35 -22 -26 3 -35 9 -35 23 0
12 7 19 20 19 11 0 20 5 20 10 0 6 -9 10 -20 10 -24 0 -26 22 -5 40 20 17 19
27 -5 33 -17 4 -18 9 -10 38 5 18 7 50 4 71 -4 24 -3 38 4 38 6 0 14 -21 17
-47z m2253 25 c-2 -6 -34 -21 -70 -34 -81 -27 -93 -34 -198 -103 -180 -119
-291 -257 -387 -482 -61 -141 -110 -217 -172 -267 -25 -20 -78 -67 -118 -103
-70 -66 -113 -97 -113 -82 0 4 24 30 53 57 75 72 114 146 127 238 20 144 44
186 138 241 43 25 72 53 119 117 101 137 179 227 241 276 76 60 204 122 289
139 88 17 95 17 91 3z m-6325 -28 c77 -29 214 -113 265 -163 47 -45 147 -165
176 -210 32 -52 90 -110 143 -144 66 -42 107 -110 128 -213 19 -90 63 -186
117 -257 22 -29 38 -58 36 -65 -6 -17 -128 133 -158 195 -14 29 -31 51 -38 49
-7 -1 -20 14 -28 33 -8 19 -17 35 -19 35 -9 0 24 -73 46 -103 25 -34 21 -42
-10 -21 -38 27 -108 151 -153 272 -11 30 -33 73 -48 96 -15 22 -39 63 -54 90
-53 95 -84 129 -245 264 -63 53 -173 112 -263 142 -38 12 -68 24 -68 27 0 12
120 -7 173 -27z m3751 -1 c2 -2 7 -28 11 -58 l7 -53 -73 7 c-41 4 -77 10 -80
14 -3 3 -3 17 2 31 7 24 7 24 8 3 1 -18 7 -23 26 -23 21 0 25 5 25 30 0 29
-10 36 -47 31 -14 -2 -17 11 -5 23 7 8 118 4 126 -5z m2900 -47 c-11 -61 -31
-89 -81 -113 -73 -35 -149 -36 -281 -4 -62 16 -112 31 -112 34 0 3 41 23 92
45 71 30 116 41 202 52 61 7 125 17 141 22 41 12 47 7 39 -36z m-6979 14 c91
-12 278 -65 298 -85 10 -10 -86 -45 -161 -60 -119 -24 -220 -4 -271 54 -17 20
-31 43 -31 53 0 9 -3 28 -7 41 -6 23 -5 24 33 17 21 -4 84 -13 139 -20z m3266
-130 c13 -52 7 -78 -16 -70 -9 4 -15 18 -15 36 0 33 -16 68 -30 68 -6 0 -10
-22 -10 -49 0 -28 -4 -53 -10 -56 -11 -7 -14 95 -4 168 l7 46 33 -49 c18 -27
39 -69 45 -94z m-277 -3 c-1 -125 -8 -173 -23 -173 -14 0 -24 141 -16 217 8
76 12 86 28 80 8 -3 12 -41 11 -124z m798 -9 c82 -14 97 -20 102 -38 3 -12 6
-115 6 -229 0 -163 -3 -208 -12 -205 -10 4 -14 53 -16 191 -1 113 -6 187 -12
187 -6 0 -10 -69 -10 -180 0 -99 -4 -180 -9 -180 -4 0 -11 80 -15 178 -4 97
-10 180 -14 184 -4 4 -5 -76 -4 -177 4 -164 2 -185 -12 -185 -14 0 -16 23 -16
190 0 120 -4 190 -10 190 -6 0 -10 -41 -10 -102 0 -135 -11 -268 -21 -268 -5
0 -9 86 -9 190 0 132 -3 190 -11 190 -8 0 -10 -46 -8 -155 2 -85 1 -155 -2
-155 -8 0 -19 142 -19 243 0 44 -4 77 -10 77 -6 0 -10 -38 -10 -94 0 -52 -4
-97 -9 -100 -15 -10 -21 22 -21 110 0 49 -4 84 -10 84 -6 0 -10 -39 -10 -97 0
-111 -19 -113 -21 -3 -2 111 -17 126 -18 18 -1 -80 -4 -98 -16 -98 -13 0 -15
22 -15 139 l0 138 73 -13 c39 -7 116 -21 169 -30z m279 -54 c4 -41 7 -171 8
-288 l1 -213 -52 3 -53 3 -6 60 c-4 33 -7 160 -8 282 l-1 222 28 4 c73 12 76
9 83 -73z m1850 -115 c-25 -56 -110 -150 -124 -136 -6 6 -12 46 -15 90 -6 111
17 160 97 200 l56 29 3 -69 c2 -52 -2 -80 -17 -114z m-4948 134 c30 -26 50
-53 57 -77 11 -41 13 -144 3 -180 -6 -23 -8 -22 -54 24 -60 59 -89 130 -89
214 0 52 3 60 19 60 10 0 39 -18 64 -41z m297 -15 c0 -15 -43 -58 -99 -99 -34
-25 -63 -45 -66 -45 -3 0 -5 13 -5 29 0 21 10 37 33 57 47 40 137 78 137 58z
m4364 -31 c56 -31 67 -41 72 -70 4 -19 5 -36 3 -38 -7 -6 -130 98 -147 123
-20 31 -5 28 72 -15z m-2714 -86 c0 -54 -3 -61 -40 -100 l-39 -42 -1 28 c0 16
11 56 24 90 13 34 27 73 31 86 11 38 25 5 25 -62z m1520 53 c0 -24 -25 -27
-34 -4 -5 13 -9 14 -21 4 -12 -10 -15 -9 -15 4 0 12 9 16 35 16 28 0 35 -4 35
-20z m-1107 -11 l57 -12 0 -44 0 -45 -72 7 c-40 4 -74 8 -74 9 -1 0 -4 22 -6
49 -6 54 -4 55 95 36z m-143 -39 c0 -39 -2 -42 -44 -60 -24 -10 -62 -30 -83
-43 l-40 -25 4 51 c3 29 5 56 7 60 1 8 117 53 144 56 8 1 12 -13 12 -39z
m1248 -219 l4 -220 -29 3 -28 3 0 79 c0 58 3 78 13 77 6 -2 12 2 12 7 0 6 -6
10 -13 10 -9 0 -12 32 -12 130 l0 130 25 0 25 0 3 -219z m-3173 187 c-22 -70
-52 -123 -93 -158 -54 -48 -77 -52 -67 -12 16 64 45 107 110 160 47 38 59 40
50 10z m4400 -60 c32 -35 65 -112 53 -124 -9 -9 -65 23 -93 54 -25 27 -57 86
-70 130 l-7 24 42 -24 c23 -12 56 -40 75 -60z m-2854 -152 c1 -56 4 -80 8 -61
7 29 7 29 13 6 4 -13 12 -21 19 -19 9 3 13 25 12 69 -1 61 1 66 38 108 l40 44
-3 -109 -3 -109 -95 -32 c-52 -17 -101 -32 -107 -32 -10 -1 -13 27 -13 109 l0
110 38 0 c27 0 33 3 22 10 -8 5 -25 10 -37 10 -28 0 -28 6 -2 67 l21 48 24
-64 c18 -49 24 -85 25 -155z m629 143 c58 -7 128 -14 155 -18 l50 -6 16 -215
c9 -118 19 -257 21 -307 l5 -93 -72 0 -72 0 -7 141 c-8 182 -28 229 -95 229
-45 0 -60 -78 -70 -362 -1 -16 -12 -18 -76 -18 l-76 0 6 143 c3 78 10 189 16
246 5 58 9 144 9 193 l0 88 43 -5 c23 -3 89 -10 147 -16z m-257 -41 c-10 -53
-22 -68 -23 -28 l0 34 -21 -21 c-22 -22 -20 -61 3 -47 8 5 9 0 6 -14 -5 -19
-3 -21 18 -16 13 3 24 2 24 -4 0 -5 -11 -13 -25 -16 -23 -6 -25 -11 -26 -74
-2 -112 -16 -141 -18 -35 0 50 -4 94 -8 96 -5 3 -25 -2 -45 -11 -36 -16 -38
-19 -39 -62 0 -25 -4 -63 -8 -85 -6 -29 -9 -1 -10 102 l-1 141 43 21 c23 11
54 23 70 27 15 3 30 10 33 15 3 5 12 9 19 9 11 0 13 -8 8 -32z m1140 -24 c15
-5 17 -18 17 -97 0 -101 -8 -167 -21 -167 -4 0 -6 51 -3 113 5 134 -2 131 -11
-5 -4 -54 -11 -98 -16 -98 -4 0 -6 46 -3 103 4 78 3 98 -6 84 -6 -9 -10 -25
-9 -35 5 -51 -2 -152 -11 -152 -6 0 -11 44 -12 108 l-2 107 -3 -107 c-2 -60
-8 -108 -12 -108 -12 0 -23 80 -20 150 1 33 -1 63 -4 67 -4 3 -7 -42 -7 -100
0 -65 -4 -107 -10 -107 -6 0 -10 41 -10 104 0 83 -3 105 -15 110 -13 4 -15
-10 -15 -94 0 -55 -4 -100 -9 -100 -8 0 -22 236 -14 251 2 6 159 -16 196 -27z
m-1993 -54 c0 -16 -4 -30 -10 -30 -5 0 -10 14 -10 30 0 17 5 30 10 30 6 0 10
-13 10 -30z m329 -48 c-1 -26 -5 -60 -8 -77 -6 -23 -9 -13 -13 45 -5 78 -3 94
13 85 5 -4 8 -27 8 -53z m1939 -65 c2 -102 1 -117 -13 -117 -14 0 -16 14 -13
105 2 58 0 105 -4 105 -5 0 -8 7 -8 16 0 9 7 14 18 12 15 -3 17 -18 20 -121z
m-1988 33 c0 -40 -4 -70 -10 -70 -6 0 -10 30 -10 70 0 40 4 70 10 70 6 0 10
-30 10 -70z m-50 1 c0 -33 -4 -63 -10 -66 -6 -4 -10 18 -10 59 0 37 4 66 10
66 6 0 10 -26 10 -59z m-2931 -111 c108 -253 181 -368 340 -534 120 -125 283
-236 330 -223 15 4 18 -2 17 -32 -1 -42 79 -179 123 -210 62 -44 153 -47 217
-6 19 12 24 12 39 -5 19 -21 45 -27 45 -11 0 32 98 59 115 32 3 -6 0 -32 -6
-58 -31 -127 -115 -229 -241 -292 -74 -37 -191 -71 -203 -59 -2 2 -13 42 -23
88 -13 62 -23 86 -35 88 -15 3 -17 -6 -17 -60 0 -35 5 -80 11 -101 14 -53 41
-67 119 -62 79 5 123 -8 146 -42 21 -33 22 -94 0 -124 -16 -23 -16 -23 -16 23
0 61 -7 76 -41 93 -39 20 -45 19 -24 -5 24 -26 25 -85 2 -107 -16 -16 -17 -16
-17 3 0 12 -5 35 -11 53 -14 40 -46 48 -100 27 -71 -29 -129 6 -180 106 -17
34 -22 37 -34 24 -25 -25 -57 -30 -70 -12 -16 21 -25 10 -19 -24 5 -22 -1 -33
-38 -64 -54 -47 -82 -62 -135 -71 -47 -7 -55 4 -33 46 13 23 1 25 -38 5 -49
-25 -72 -29 -72 -12 0 8 42 36 102 68 76 39 121 71 174 123 66 65 112 130 100
142 -3 3 -31 -11 -63 -30 -31 -20 -61 -33 -65 -31 -15 10 12 43 107 130 100
93 112 124 35 89 -49 -22 -71 -10 -40 23 26 27 17 31 -50 22 -85 -11 -106 4
-44 33 41 20 37 37 -9 37 -44 0 -109 19 -102 30 3 5 19 11 36 15 39 9 33 25
-17 42 -57 19 -84 35 -84 49 0 17 19 22 59 16 46 -7 35 8 -32 46 -49 28 -95
77 -84 89 3 2 24 -1 47 -7 23 -6 44 -9 47 -6 3 3 -21 30 -53 61 -42 40 -55 58
-47 66 8 8 20 6 43 -6 18 -9 31 -12 29 -7 -2 6 -46 54 -96 108 -163 174 -210
250 -235 384 -13 72 3 215 22 194 4 -5 35 -74 69 -154z m2887 144 c-3 -9 -6
-40 -6 -70 0 -30 -4 -54 -10 -54 -6 0 -10 30 -10 70 0 58 3 70 16 70 11 0 14
-5 10 -16z m4758 -57 c15 -115 -31 -264 -114 -372 -21 -27 -75 -88 -120 -135
-45 -47 -86 -93 -91 -102 -8 -15 -6 -15 21 -1 31 15 60 12 60 -6 0 -5 -25 -31
-55 -57 -30 -26 -55 -52 -55 -57 0 -4 21 -5 46 -1 44 6 46 6 35 -14 -12 -23
-56 -56 -87 -66 -12 -4 -30 -16 -40 -28 l-19 -21 47 7 c84 13 74 -27 -19 -69
-29 -14 -53 -27 -53 -29 0 -3 16 -13 35 -22 19 -9 35 -20 35 -25 0 -5 -30 -9
-66 -9 -56 0 -65 -2 -62 -17 2 -9 14 -20 27 -23 14 -3 27 -12 29 -19 4 -11
-10 -12 -67 -6 -60 6 -71 5 -71 -8 0 -9 5 -19 10 -22 6 -3 10 -11 10 -17 0 -6
-18 -7 -50 -3 -27 4 -50 4 -50 0 0 -18 48 -70 116 -127 41 -34 80 -70 85 -80
17 -31 -22 -22 -90 22 l-62 40 28 -51 c51 -91 157 -183 298 -256 76 -40 69
-57 -9 -23 -26 11 -49 20 -51 20 -2 0 10 -13 26 -29 38 -39 37 -51 -7 -51 -71
0 -120 20 -169 70 -41 42 -45 50 -34 67 7 12 9 28 5 39 -8 18 -9 18 -19 -3
-11 -25 -53 -31 -88 -13 -21 12 -26 1 -7 -18 7 -7 9 -12 5 -12 -4 0 -3 -9 3
-19 9 -17 7 -19 -10 -16 -11 2 -24 -4 -31 -13 -11 -17 -10 -12 6 33 4 11 -2 7
-12 -10 -11 -16 -27 -36 -36 -43 -9 -8 -13 -20 -10 -28 8 -21 -25 -18 -92 8
l-58 22 -23 -28 c-14 -15 -24 -40 -24 -57 0 -38 -15 -30 -30 17 -11 32 -10 39
9 65 15 20 17 29 9 29 -43 0 -85 -75 -72 -127 8 -32 -3 -29 -21 7 -24 46 -19
87 14 121 27 27 35 29 104 29 88 0 113 15 127 75 14 59 12 138 -4 160 -12 16
-15 11 -29 -51 -9 -38 -19 -84 -22 -101 -8 -38 -21 -41 -92 -17 -178 60 -333
220 -349 360 l-6 49 40 0 c32 0 45 -6 62 -28 26 -33 37 -34 51 -4 l10 23 56
-28 c31 -15 71 -28 90 -28 48 0 108 42 147 103 19 29 48 64 65 79 31 26 42 70
21 83 -16 10 -3 22 30 29 54 10 141 76 260 196 165 166 244 291 399 633 17 38
35 66 40 63 5 -3 12 -30 15 -59z m-4814 -12 c0 -37 -4 -65 -10 -65 -6 0 -10
28 -10 65 0 37 4 65 10 65 6 0 10 -28 10 -65z m3203 37 c37 -25 56 -52 57 -81
0 -25 -1 -24 -35 9 -19 19 -35 32 -35 29 0 -3 9 -31 21 -64 19 -55 20 -61 4
-99 -15 -40 -81 -124 -89 -115 -9 8 33 339 43 339 3 0 18 -8 34 -18z m-4449
-44 c3 -29 8 -91 11 -138 3 -47 8 -96 11 -110 4 -23 2 -23 -27 10 -57 64 -77
152 -44 196 27 36 17 49 -15 19 -35 -34 -44 -30 -29 14 10 29 48 60 75 61 7 0
14 -23 18 -52z m1155 -20 c-1 -40 2 -73 7 -73 16 1 97 17 154 30 87 21 138 27
118 15 -13 -8 -281 -70 -303 -70 -8 0 -6 156 2 163 18 19 24 0 22 -65z m51 0
c0 -26 -4 -50 -10 -53 -6 -4 -10 19 -10 62 0 48 3 63 10 53 5 -8 10 -36 10
-62z m506 -16 c-3 -10 -10 -36 -16 -59 -8 -34 -16 -43 -40 -48 -24 -5 -31 -13
-36 -43 -4 -20 -17 -68 -30 -107 -20 -61 -23 -66 -24 -35 -1 50 -10 80 -25 80
-25 0 -44 -31 -51 -81 -7 -54 -24 -77 -24 -33 0 48 23 252 29 261 3 5 48 24
99 42 51 19 95 38 98 42 9 15 25 -1 20 -19z m-2184 -24 c71 -27 97 -43 86 -53
-2 -2 -26 2 -53 10 -26 8 -72 15 -100 15 -80 0 -115 9 -115 31 0 46 57 46 182
-3z m5499 32 c24 -13 25 -46 2 -55 -10 -3 -64 -10 -120 -15 -56 -4 -107 -11
-113 -15 -8 -5 -11 -1 -8 10 2 10 31 32 68 51 68 35 133 44 171 24z m-2331
-35 c69 -8 144 -15 168 -15 56 0 61 -14 69 -192 l6 -139 -44 3 -44 3 -3 104
c-3 111 -10 131 -47 131 -31 0 -35 -15 -35 -131 l0 -99 -35 0 -35 0 0 80 c0
79 -18 150 -39 150 -5 0 -16 3 -24 6 -8 3 -22 -2 -31 -11 -13 -13 -16 -38 -16
-121 0 -103 0 -104 -24 -104 -29 0 -32 16 -41 185 -3 61 -9 122 -11 138 -5 25
-3 27 28 27 18 0 89 -7 158 -15z m469 -66 l131 -13 0 -75 0 -76 -20 25 c-18
23 -24 42 -21 63 3 17 -20 5 -29 -15 l-9 -23 0 22 c-1 12 -10 27 -21 33 -18
10 -20 7 -22 -32 l-1 -43 -4 43 c-2 23 -8 42 -14 42 -5 0 -9 -4 -9 -9 0 -5
-17 -1 -37 9 -21 10 -54 21 -73 25 -19 4 -41 12 -47 17 -23 18 -14 31 16 25
16 -4 88 -12 160 -18z m270 -143 l2 -124 -31 -7 c-17 -4 -33 -5 -35 -3 -1 1
-5 60 -7 131 l-4 127 37 0 37 0 1 -124z m-2269 92 c-70 -28 -74 -32 -91 -98
-9 -36 -17 -58 -18 -50 -1 21 17 132 23 138 7 6 67 20 91 20 17 1 16 -1 -5
-10z m595 -8 c17 -7 24 -14 18 -22 -4 -7 -10 -33 -13 -58 -4 -36 -9 -46 -26
-48 -16 -2 -28 -18 -43 -55 l-21 -52 6 110 c8 136 16 149 79 125z m1335 -45
c47 -23 113 -55 148 -70 62 -28 63 -29 60 -64 -2 -25 -8 -37 -20 -39 -12 -2
-18 3 -18 15 0 11 -7 28 -15 39 -13 18 -14 17 -15 -19 0 -53 -24 -43 -28 11
-4 47 -22 58 -22 13 0 -16 -3 -36 -6 -45 -12 -32 -24 -15 -24 33 0 28 -5 53
-11 56 -7 5 -10 -10 -8 -46 3 -45 0 -54 -15 -57 -16 -4 -18 2 -13 50 l6 53
-11 -52 -11 -53 -43 0 c-48 0 -47 -1 -58 90 -3 25 -8 66 -12 93 -8 55 -16 56
116 -8z m1644 16 c7 -11 -30 -44 -79 -70 -55 -28 -80 -50 -98 -87 -14 -27 -20
-30 -51 -26 -20 2 -36 7 -36 11 0 12 104 108 145 133 36 22 88 45 107 47 4 1
9 -3 12 -8z m1431 -57 c-36 -62 -164 -195 -224 -234 -44 -28 -81 -39 -81 -24
0 10 262 288 289 306 40 27 47 5 16 -48z m-7913 19 c65 -57 272 -283 265 -290
-31 -30 -337 259 -337 319 0 18 31 6 72 -29z m1462 26 c26 -7 60 -32 107 -79
38 -38 69 -74 69 -80 0 -5 -12 -10 -27 -10 -20 0 -33 8 -44 29 -9 16 -48 49
-85 73 -38 25 -75 52 -83 61 -12 15 -11 17 5 17 11 0 36 -5 58 -11z m2181 -1
c33 -15 28 -28 -15 -42 -26 -8 -36 -18 -38 -36 -8 -54 -17 -36 -14 25 4 71 13
78 67 53z m-3187 -66 c18 -31 53 -83 79 -115 25 -31 43 -60 39 -65 -4 -4 -32
19 -62 51 l-54 58 0 -32 c0 -32 0 -32 -21 -13 -38 33 -51 78 -38 129 6 25 14
45 18 45 3 0 21 -26 39 -58z m7016 3 c17 -54 17 -55 -5 -95 -12 -22 -28 -40
-35 -40 -17 0 -27 35 -19 63 5 14 -3 8 -23 -18 -36 -49 -92 -102 -92 -88 0 5
17 34 38 64 21 30 54 80 73 112 18 31 37 57 40 57 3 0 14 -25 23 -55z m-7364
-227 c25 -20 71 -50 102 -68 56 -31 75 -47 66 -56 -9 -8 -120 27 -177 56 -62
31 -88 59 -115 124 -28 67 -20 74 32 25 26 -25 67 -62 92 -81z m7783 60 c-39
-87 -158 -168 -248 -168 -56 0 -52 9 18 44 55 28 175 119 211 160 31 35 41 15
19 -36z m-4148 -38 c1650 -8 1801 -12 1829 -40 12 -12 -7 -12 -139 0 -89 8
-511 2 -501 -7 3 -3 203 -20 341 -28 81 -5 144 -16 151 -26 3 -5 -541 -9
-1248 -9 -689 0 -1263 -3 -1275 -6 -20 -5 -23 -2 -23 21 0 25 -3 27 -27 20
-16 -3 -31 -9 -35 -13 -3 -4 -11 -62 -17 -130 -10 -107 -24 -162 -41 -162 -3
0 -13 32 -22 71 -33 137 -88 194 -181 187 l-42 -3 3 -450 4 -450 30 -29 c38
-35 26 -46 -53 -46 -30 0 -115 -5 -188 -11 -132 -10 -163 -7 -127 15 10 6 32
22 47 34 l29 24 0 459 0 459 -44 0 c-107 0 -168 -60 -196 -192 -23 -114 -52
-57 -58 112 l-4 125 -34 31 c-55 51 -47 59 48 56 46 -2 844 -7 1773 -12z
m2185 5 c0 -3 -10 -19 -22 -35 l-22 -30 49 -177 c26 -98 58 -214 70 -258 13
-44 44 -156 70 -250 65 -237 93 -313 134 -358 18 -20 32 -39 30 -40 -6 -5
-320 13 -374 21 l-50 7 42 30 c66 47 67 53 35 190 l-29 120 -133 0 -133 0 -28
-105 c-36 -132 -36 -160 -4 -190 14 -13 25 -27 25 -30 0 -7 -113 -4 -207 6
-55 6 -68 18 -33 29 29 9 55 66 90 201 18 66 67 243 111 394 43 151 85 303 93
338 16 70 16 71 -49 119 l-30 22 183 1 c100 0 182 -2 182 -5z m-4475 -11 c23
-9 45 -57 45 -99 0 -49 -21 -94 -61 -132 -43 -40 -77 -53 -140 -53 -45 0 -49
-2 -49 -24 0 -13 7 -43 15 -66 18 -51 21 -167 3 -135 -6 11 -22 32 -36 48
l-26 27 18 50 c21 59 15 85 -27 106 -18 9 -77 46 -131 82 -77 52 -106 78 -133
120 -19 29 -33 55 -31 58 2 2 19 5 38 6 31 3 37 -2 72 -54 35 -53 42 -58 76
-58 59 -1 122 -19 195 -56 63 -32 69 -33 95 -20 36 19 51 36 62 76 10 36 -3
84 -22 78 -6 -2 -18 -23 -26 -46 -15 -46 -27 -50 -74 -26 -29 15 -29 16 -11
29 10 7 37 32 60 54 40 41 56 47 88 35z m335 -18 c0 -7 3 -27 6 -43 l6 -30
-97 -22 c-53 -13 -98 -21 -99 -19 -2 1 -6 22 -10 44 l-6 42 83 20 c102 24 117
26 117 8z m4418 -13 l82 -17 0 -43 c0 -38 -3 -43 -22 -43 -33 0 -178 36 -188
46 -4 5 -5 26 -2 47 4 34 7 38 26 33 11 -3 58 -13 104 -23z m360 -19 l82 -47
-51 -23 c-58 -27 -64 -25 -100 32 -24 40 -36 43 -45 10 -9 -36 30 -105 69
-121 30 -12 36 -11 105 25 52 28 91 40 137 45 71 8 77 12 124 73 27 35 38 42
67 42 44 0 44 -20 0 -81 -22 -30 -57 -59 -98 -82 -36 -20 -92 -56 -126 -81
-60 -45 -62 -47 -62 -92 0 -25 5 -54 10 -65 8 -15 7 -23 -5 -35 -8 -8 -18 -26
-21 -40 -3 -13 -10 -24 -14 -24 -20 0 -18 89 5 195 6 30 5 31 -29 32 -130 4
-240 112 -223 220 13 79 58 83 175 17z m-1291 -10 c-3 -3 -12 -4 -19 -1 -8 3
-5 6 6 6 11 1 17 -2 13 -5z m-5243 -68 c44 -18 118 -45 163 -60 59 -20 86 -34
98 -53 l17 -26 -43 7 c-144 23 -389 131 -389 171 0 13 70 -5 154 -39z m7966
34 c0 -27 -247 -138 -357 -161 -69 -14 -78 -11 -68 21 9 29 100 64 335 131 76
21 90 22 90 9z m-6140 -125 c0 -25 -1 -45 -3 -45 -1 0 -57 -7 -122 -15 -156
-19 -145 -21 -145 20 0 28 5 36 23 40 27 7 217 42 235 44 8 1 12 -14 12 -44z
m1525 17 c166 -76 218 -276 104 -406 -21 -24 -56 -51 -78 -59 l-39 -16 39
-108 c56 -154 89 -217 116 -221 32 -5 71 41 75 86 l3 37 18 -34 c44 -81 -39
-190 -147 -194 -94 -4 -150 65 -246 303 -66 164 -59 155 -112 144 l-43 -9 -3
-130 c-4 -156 3 -209 29 -234 19 -17 17 -18 -78 -24 -54 -4 -118 -7 -143 -7
-45 1 -45 1 -24 19 21 17 22 26 29 403 7 348 6 388 -9 409 -23 33 -21 34 27
32 23 -2 83 6 132 16 126 27 280 24 350 -7z m2795 -2 c47 -7 91 -17 98 -23 6
-5 12 -23 12 -39 0 -33 6 -33 -162 -7 l-68 11 0 40 c0 33 3 39 18 35 9 -3 55
-11 102 -17z m-2256 -36 c-15 -22 -16 -64 -9 -402 4 -229 11 -382 17 -389 8
-10 -10 -13 -85 -13 -52 0 -110 -3 -128 -6 l-34 -7 23 25 c22 24 22 24 22 399
0 320 -2 378 -15 396 l-16 22 113 3 c62 2 116 2 120 0 4 -2 1 -14 -8 -28z
m316 27 c0 -3 -7 -12 -16 -22 -15 -17 -12 -31 40 -191 31 -95 78 -233 103
-307 l46 -134 19 37 c27 52 139 334 183 459 l38 108 -23 24 -23 25 113 0 114
0 -44 -42 c-38 -38 -52 -65 -109 -214 -36 -95 -102 -262 -146 -373 l-80 -201
-115 2 -114 3 -34 105 c-18 58 -72 231 -119 385 -47 154 -94 292 -104 307 -11
14 -19 28 -19 30 0 1 65 3 145 3 80 0 145 -2 145 -4z m860 -1 l109 0 -15 -35
c-21 -52 -21 -747 1 -789 8 -15 15 -30 15 -32 0 -6 -172 -3 -219 4 l-43 7 21
19 c21 19 21 25 21 406 0 332 -2 389 -15 400 -20 16 -19 34 1 26 9 -3 65 -6
124 -6z m-4066 -26 c14 -5 14 -8 1 -27 -36 -51 -12 -103 63 -141 27 -14 31
-20 21 -32 -28 -33 -98 -7 -139 53 -28 41 -31 90 -7 127 18 26 32 31 61 20z
m5885 -20 c15 -18 21 -41 21 -73 0 -41 -5 -51 -37 -83 -21 -20 -48 -39 -60
-42 -26 -8 -58 7 -73 34 -10 18 -8 19 19 14 25 -5 36 -1 61 24 35 35 38 64 11
109 -11 17 -17 34 -14 37 15 15 53 4 72 -20z m-6697 -51 c71 -11 109 -22 113
-32 3 -7 3 -16 0 -19 -8 -9 -165 15 -222 34 -61 20 -84 50 -31 41 18 -3 81
-14 140 -24z m7608 19 c0 -17 -98 -52 -173 -62 -104 -13 -117 -13 -117 5 0 20
9 23 137 45 125 21 153 23 153 12z m-1035 -24 c32 -15 33 -44 1 -50 -28 -6
-46 8 -46 32 0 15 8 30 16 30 2 0 15 -5 29 -12z m-5645 -23 c0 -21 -5 -25 -30
-25 -25 0 -30 4 -30 25 0 21 5 25 30 25 25 0 30 -4 30 -25z m274 9 c14 -38 6
-121 -15 -148 -28 -35 -82 -34 -87 2 -3 16 2 22 16 22 34 0 56 36 55 90 0 34
3 50 12 50 7 0 16 -7 19 -16z m5078 -29 c-5 -51 11 -79 54 -89 17 -5 24 -13
24 -31 0 -38 -44 -33 -86 9 -28 28 -34 42 -34 76 0 47 14 80 34 80 10 0 12
-12 8 -45z m-5162 -15 c24 -24 26 -40 5 -40 -14 0 -35 29 -35 49 0 16 7 14 30
-9z m530 -19 l0 -39 -47 -6 c-27 -3 -91 -7 -143 -8 l-95 -3 3 35 c2 19 5 36 6
37 2 2 192 19 249 22 25 1 27 -2 27 -38z m4413 20 c13 -1 17 -10 17 -41 l0
-39 -97 6 c-54 3 -101 8 -104 12 -8 8 -19 67 -14 72 2 3 43 1 92 -3 48 -3 96
-7 106 -7z m295 -8 c4 -24 -26 -40 -34 -18 -8 21 3 47 19 43 6 -3 13 -14 15
-25z m-6473 -17 c61 -8 145 -18 187 -21 45 -4 82 -12 88 -20 17 -20 -121 -30
-218 -16 -121 18 -263 71 -190 71 13 0 73 -6 133 -14z m7805 5 c0 -15 -78 -41
-176 -57 -108 -19 -244 -12 -244 11 0 15 34 21 170 30 52 4 113 10 135 15 56
11 115 12 115 1z m-6906 -76 c56 -28 104 -32 146 -10 35 18 46 6 28 -32 -9
-19 -27 -33 -55 -42 -38 -14 -45 -13 -83 4 -43 20 -90 67 -90 91 0 18 -4 18
54 -11z m5946 4 c0 -12 -17 -37 -37 -56 -36 -33 -41 -34 -95 -31 -64 5 -98 27
-98 65 0 27 -3 27 50 8 58 -20 80 -19 131 9 24 14 45 25 47 25 1 1 2 -9 2 -20z
m-6504 -53 c18 -14 17 -16 -21 -32 -46 -20 -325 -34 -325 -16 0 17 58 34 163
47 141 17 160 17 183 1z m7176 -7 c108 -10 163 -27 146 -44 -19 -19 -281 7
-321 32 -15 9 15 33 37 28 11 -2 74 -9 138 -16z m-5806 -31 c-3 -18 -12 -36
-19 -40 -6 -4 -61 -7 -122 -6 l-110 3 3 25 c5 50 5 50 133 50 l122 0 -7 -32z
m4517 -11 c5 -21 7 -40 5 -43 -3 -2 -46 -1 -97 3 -87 6 -93 8 -102 31 -18 47
-8 53 93 50 l92 -3 9 -38z m-5825 -33 c12 -4 22 -9 22 -13 -1 -9 -137 -68
-185 -81 -48 -12 -145 -13 -145 -2 0 15 79 53 158 77 82 24 113 28 150 19z
m7042 -33 c52 -17 106 -40 120 -51 l25 -20 -55 0 c-31 0 -82 7 -114 15 -67 18
-180 78 -169 89 13 13 93 -1 193 -33z m-5598 -65 c10 -5 10 -7 0 -12 -7 -3
-26 -17 -43 -31 l-30 -26 -23 22 c-21 20 -33 21 -184 21 -89 0 -162 3 -162 8
0 4 7 15 15 26 13 17 25 18 119 14 61 -3 111 -10 120 -17 19 -16 80 8 96 39
11 21 11 21 45 -8 18 -16 39 -32 47 -36z m-1325 39 c7 -19 -13 -36 -92 -75
-78 -38 -115 -47 -115 -28 0 21 24 40 100 81 72 39 98 44 107 22z m6753 -33
c130 -75 116 -109 -18 -45 -90 43 -136 93 -83 93 9 0 55 -22 101 -48z m-1000
-1 c5 -11 10 -24 10 -30 0 -13 -190 -16 -190 -3 0 4 -3 17 -6 30 -6 22 -5 22
84 22 80 0 93 -2 102 -19z m-4728 -103 c93 -3 97 -4 103 -27 3 -13 2 -27 -2
-31 -4 -4 -57 -3 -118 1 -180 14 -196 20 -159 60 12 13 22 15 47 8 18 -5 76
-10 129 -11z m4792 -20 c5 -9 8 -19 5 -22 -2 -2 -55 -8 -117 -12 l-112 -7 0
26 c0 30 20 35 139 33 58 -1 76 -5 85 -18z m-4875 -103 c73 -8 136 -16 138
-19 3 -2 2 -14 -2 -26 -8 -25 -12 -25 -212 6 -80 12 -123 23 -123 31 0 16 31
33 50 28 8 -3 75 -11 149 -20z m4966 -5 c10 -11 16 -22 14 -24 -7 -7 -209 -36
-249 -36 -30 0 -40 4 -45 21 -4 11 -5 22 -2 25 2 2 44 9 93 15 49 6 91 13 93
15 14 13 80 2 96 -16z m-5111 -99 c43 -11 129 -28 190 -37 61 -9 115 -19 119
-24 5 -4 7 -16 5 -26 -4 -21 3 -20 -243 -16 l-125 2 0 24 c0 38 -43 66 -101
66 -49 0 -60 9 -36 28 29 23 47 22 191 -17z m5219 4 c-1 -5 -17 -14 -36 -20
-40 -11 -87 -48 -87 -69 0 -24 -179 -36 -198 -13 -6 6 -13 24 -17 40 -7 26 -6
27 31 27 22 0 84 11 139 24 102 25 171 29 168 11z m-5889 -77 l48 -43 -117 0
c-83 0 -111 3 -99 10 10 6 34 25 53 42 20 18 43 33 51 33 9 0 37 -19 64 -42z
m6493 6 c50 -38 68 -62 39 -51 -10 4 -56 7 -103 7 l-86 0 44 40 c24 21 47 39
51 40 4 0 29 -16 55 -36z m-6031 8 c11 -7 34 -46 34 -57 0 -3 -15 -5 -32 -3
-33 3 -46 23 -34 54 6 16 15 17 32 6z m108 -30 c7 -24 6 -36 -4 -45 -10 -9
-14 -9 -18 2 -3 8 -16 25 -29 37 -29 27 -22 46 15 42 20 -2 29 -11 36 -36z
m5390 32 c21 -8 20 -53 -1 -61 -9 -4 -31 -7 -47 -7 -24 0 -32 6 -36 25 l-6 24
-18 -27 c-21 -32 -36 -36 -36 -10 0 28 30 50 75 55 22 2 43 4 47 5 3 1 13 -1
22 -4z m-3338 -89 c66 -45 156 -43 199 5 18 19 30 20 464 20 599 0 991 -17
1561 -66 157 -14 327 -28 378 -31 50 -3 92 -9 92 -14 0 -14 -155 -132 -205
-155 l-50 -23 -335 29 c-645 56 -839 64 -1550 64 -676 0 -747 -3 -1293 -49
-159 -14 -352 -30 -428 -36 l-140 -11 -52 26 c-53 26 -187 131 -187 146 0 11
30 15 315 39 382 34 912 70 1162 80 19 0 47 -9 69 -24z m-1702 -116 c30 -36
34 -54 9 -44 -10 4 -42 10 -70 13 -59 5 -104 -9 -131 -42 -13 -16 -28 -21 -69
-21 -44 0 -57 -5 -82 -29 -17 -17 -36 -45 -43 -63 -8 -23 -18 -33 -33 -33 -36
0 -47 -16 -58 -89 l-11 -71 -221 6 c-284 7 -431 25 -646 78 -275 69 -327 95
-348 172 -17 61 20 134 74 147 11 3 376 5 812 6 l791 1 26 -31z m6171 17 c77
-33 88 -145 20 -209 -27 -24 -76 -41 -325 -111 -205 -57 -239 -61 -545 -61
l-280 0 -6 53 c-8 59 -31 92 -65 92 -16 0 -30 14 -52 53 -35 61 -69 81 -132
75 -22 -2 -40 0 -40 4 0 16 -76 57 -117 64 -23 3 -56 2 -72 -4 -40 -14 -39 -1
0 32 l31 26 774 0 c647 0 780 -2 809 -14z m-6191 -136 c23 -11 67 -44 99 -74
l58 -54 -6 -114 c-4 -62 -11 -127 -16 -144 -13 -44 -83 -112 -143 -140 -57
-27 -86 -30 -104 -12 -19 19 -15 26 31 46 100 44 159 127 159 221 0 98 -42
157 -159 223 -46 26 -51 32 -43 49 14 26 71 25 124 -1z m4696 5 c15 -19 8 -29
-32 -45 -135 -54 -198 -168 -162 -289 19 -65 81 -131 148 -156 60 -23 60 -49
-1 -53 -50 -4 -89 15 -150 71 -66 61 -75 85 -81 218 l-5 115 51 48 c84 80 129
106 183 106 20 0 42 -7 49 -15z m-2287 -51 c-1 -11 -5 -33 -9 -51 -4 -21 -1
-39 10 -55 9 -12 16 -30 16 -40 0 -16 10 -18 80 -18 74 0 97 -9 69 -26 -6 -3
-51 -8 -101 -9 -62 -2 -94 -8 -99 -17 -6 -8 -9 2 -9 29 0 33 -5 46 -26 62 -54
42 -113 17 -124 -51 l-5 -31 -85 2 c-102 3 -130 8 -130 27 0 11 18 14 81 14
51 0 78 4 74 10 -3 6 3 22 14 36 24 31 26 45 9 90 -9 26 -9 36 1 48 19 23 41
20 41 -6 1 -88 148 -82 154 6 1 23 3 24 21 12 11 -8 19 -22 18 -32z m2474 -8
c28 -24 28 -25 31 -164 3 -114 0 -146 -13 -171 -17 -34 -45 -42 -45 -13 0 10
5 44 11 75 8 36 9 80 3 124 l-8 68 -6 -101 c-5 -75 -11 -111 -28 -142 -26 -51
-27 -60 -5 -84 22 -25 50 -23 95 8 36 25 39 26 62 10 53 -34 55 -76 5 -101
-41 -22 -85 -18 -139 11 -55 30 -87 69 -98 119 -8 41 -25 51 -30 18 -6 -38
-20 -26 -28 24 -7 46 2 241 12 267 3 8 18 20 32 26 15 6 43 19 62 30 46 25 54
25 87 -4z m-5082 -5 c79 -36 83 -46 81 -215 -1 -152 -10 -186 -33 -125 -14 35
-33 32 -26 -5 7 -36 -25 -95 -67 -123 -23 -15 -59 -26 -91 -30 -45 -4 -58 -2
-81 17 -33 26 -35 48 -7 84 26 33 54 33 101 1 42 -28 66 -31 93 -11 18 13 18
16 -10 97 -20 61 -28 106 -29 162 -1 67 -3 75 -14 60 -15 -20 -9 -156 9 -227
12 -46 6 -55 -20 -32 -25 22 -41 97 -41 184 1 88 14 143 41 165 27 21 44 21
94 -2z m1682 -45 c84 -36 282 -96 315 -96 22 0 38 -36 38 -85 0 -48 33 -118
80 -168 22 -24 40 -49 40 -54 0 -18 -75 -45 -135 -49 -41 -3 -76 1 -110 13
-59 21 -66 39 -12 35 28 -3 37 0 37 12 0 12 -10 16 -37 17 -47 0 -105 20 -111
37 -3 9 15 12 67 12 83 0 94 15 19 25 -70 9 -114 23 -129 42 -12 14 -5 15 69
8 46 -4 82 -3 82 2 0 5 -33 17 -72 27 -72 18 -118 47 -118 73 0 16 -1 15 36 4
47 -15 114 -22 114 -12 0 5 -24 17 -52 27 -136 44 -228 105 -228 150 0 21 17
18 107 -20z m1718 5 c-24 -47 -115 -101 -228 -137 -78 -24 -58 -37 26 -17 37
9 70 13 73 10 12 -12 -28 -59 -63 -73 -19 -8 -59 -20 -89 -26 -30 -6 -54 -15
-54 -21 0 -6 13 -7 33 -3 17 4 56 10 85 13 43 5 52 3 52 -10 0 -22 -23 -32
-110 -48 l-75 -14 65 -5 c49 -4 65 -9 65 -20 0 -11 -18 -17 -67 -24 -46 -6
-68 -14 -68 -23 0 -9 13 -13 40 -13 22 0 40 -4 40 -10 0 -13 -95 -40 -139 -40
-44 0 -149 24 -162 37 -6 6 7 26 32 54 55 59 79 110 93 193 l12 69 115 32 c62
17 152 47 199 67 47 20 97 36 113 37 27 1 27 1 12 -28z m-3580 -141 c0 -109
-7 -136 -22 -82 -9 32 -9 151 0 175 15 40 22 10 22 -93z m680 72 c52 -11 127
-16 293 -16 252 -1 239 4 227 -85 l-6 -48 -252 -6 c-232 -6 -303 -12 -349 -32
-17 -7 -18 2 -18 105 0 103 1 112 18 105 9 -4 49 -14 87 -23z m4701 3 c12 -47
0 -164 -19 -182 -16 -16 -17 -11 -17 95 0 92 3 112 15 112 8 0 17 -11 21 -25z
m-4068 -97 c-3 -111 -9 -127 -38 -108 -11 7 -16 33 -19 100 -3 96 5 120 41
120 17 0 18 -7 16 -112z m2753 91 c15 -30 2 -209 -17 -209 -20 0 -22 8 -30
123 -7 104 -6 107 14 107 12 0 26 -9 33 -21z m679 -85 c0 -94 -2 -105 -16
-100 -59 23 -204 36 -395 36 l-209 0 0 63 0 64 238 6 c139 4 262 13 297 21 33
7 66 14 73 15 9 1 12 -26 12 -105z m-4356 33 c19 -26 19 -30 5 -55 -16 -30
-52 -40 -75 -22 -14 13 -20 91 -7 104 15 15 57 0 77 -27z m4614 21 c35 -35
-15 -139 -52 -108 -21 17 -30 73 -17 99 13 23 50 28 69 9z m-3248 -8 c44 0 48
-2 53 -27 3 -16 8 -38 12 -50 l7 -23 -211 -2 c-116 -1 -219 -2 -228 -2 -15 -1
-19 9 -21 51 l-3 52 158 3 c87 2 164 2 171 1 8 -2 35 -3 62 -3z m561 -42 c26
-57 160 -198 220 -232 l34 -19 -34 36 c-38 40 -41 38 54 62 33 8 75 12 95 9
55 -10 140 -35 140 -42 0 -3 -12 -16 -27 -29 -21 -17 -24 -22 -11 -23 26 0
221 198 242 248 21 47 31 52 39 20 10 -36 -12 -107 -49 -164 -51 -76 -123
-137 -231 -195 -51 -28 -97 -58 -103 -67 -6 -11 -12 -13 -17 -7 -9 12 -80 57
-168 106 -68 37 -152 119 -189 182 -41 71 -58 167 -28 167 5 0 19 -24 33 -52z
m1618 46 c30 -6 31 -9 31 -55 l0 -49 -230 0 c-126 0 -230 3 -230 7 0 8 23 76
28 83 2 3 83 7 180 10 97 3 180 7 183 8 4 1 21 -1 38 -4z m-2862 -263 c7 -11
24 -21 39 -23 39 -4 39 -20 1 -38 -25 -12 -33 -23 -37 -50 -4 -27 -10 -35 -25
-35 -16 0 -22 12 -34 62 -14 62 -14 62 10 82 30 25 31 25 46 2z m3228 -7 c32
-24 33 -27 20 -52 -8 -15 -17 -39 -20 -54 -9 -45 -42 -37 -50 12 -7 42 -27 60
-65 60 -12 0 -18 5 -15 10 3 6 17 10 31 10 13 0 32 9 42 19 22 25 18 25 57 -5z
m-3425 -4 c0 -6 -10 -24 -21 -40 -32 -43 -19 -69 74 -154 269 -245 560 -443
859 -585 321 -153 701 -289 855 -307 121 -15 576 142 937 323 298 149 702 439
874 626 47 52 48 54 27 104 -8 19 -15 37 -15 39 0 9 89 3 119 -7 38 -13 42
-46 10 -89 -48 -65 12 -82 69 -20 43 48 50 48 187 -12 134 -59 204 -63 263
-13 l29 24 35 -24 c77 -53 162 -53 238 0 l36 25 375 -2 374 -3 3 -70 3 -70
-818 3 -818 3 -31 -23 c-18 -13 -85 -69 -150 -125 -256 -221 -604 -442 -908
-574 -96 -43 -308 -122 -416 -157 -110 -36 -363 -102 -390 -102 -44 0 -288 66
-465 125 -512 173 -947 422 -1345 772 -41 36 -88 71 -105 77 -22 9 -237 11
-823 6 -435 -3 -797 -3 -802 -2 -6 2 -10 35 -10 73 0 65 1 69 25 75 13 3 183
4 377 2 l353 -4 49 -32 c41 -26 60 -32 103 -32 53 0 100 17 136 48 16 14 20
13 46 -12 54 -52 140 -45 305 25 92 39 118 38 152 -6 19 -26 34 -35 55 -35 24
0 29 4 29 23 0 13 -9 32 -20 42 -25 22 -26 70 -2 84 23 14 142 14 142 1z m457
-70 c14 -16 35 -30 45 -30 22 0 24 -32 3 -50 -9 -7 -15 -29 -15 -52 0 -37 -2
-40 -22 -33 -13 5 -43 8 -67 7 -42 -1 -43 0 -38 26 4 18 -1 36 -13 52 -26 34
-25 38 16 55 20 8 38 24 41 35 7 27 18 25 50 -10z m2720 3 c16 -16 37 -33 48
-39 18 -10 18 -12 2 -34 -9 -14 -17 -42 -17 -63 0 -34 -2 -38 -17 -31 -22 9
-60 9 -92 -1 -23 -8 -24 -7 -19 33 5 32 2 44 -13 58 -28 25 -24 38 15 52 19 7
38 22 41 32 8 27 18 25 52 -7z m-2177 -24 c4 -15 14 -25 28 -27 29 -4 28 -16
-3 -40 -17 -14 -25 -30 -25 -51 0 -17 -4 -31 -10 -31 -5 0 -10 17 -10 39 0 35
-3 39 -30 45 -33 6 -42 36 -11 36 24 0 45 25 37 46 -4 10 -1 14 6 12 7 -3 15
-15 18 -29z m1606 6 c4 -15 16 -28 31 -31 28 -7 26 -28 -4 -32 -15 -2 -22 -13
-27 -43 -8 -48 -26 -52 -26 -5 0 30 -4 35 -27 38 -38 4 -40 26 -4 39 23 8 31
17 31 35 0 32 18 31 26 -1z m-1065 -20 c-16 -88 -13 -112 16 -144 24 -27 35
-32 76 -33 53 -1 58 -15 13 -36 -24 -12 -34 -12 -70 2 -55 21 -81 50 -96 104
-10 38 -8 48 11 88 23 46 58 59 50 19z m544 1 c42 -63 21 -172 -38 -203 -49
-25 -102 -22 -132 8 l-26 25 60 -4 c56 -4 62 -2 86 24 24 26 26 35 22 79 -3
28 -8 60 -12 73 -10 31 19 30 40 -2z m-4017 8 c19 -6 22 -13 22 -63 0 -91 -6
-101 -54 -101 -77 0 -114 56 -81 120 22 42 61 58 113 44z m106 -85 c-6 -66 -9
-78 -16 -58 -15 37 1 163 18 146 3 -2 2 -42 -2 -88z m7421 75 c19 -8 45 -55
45 -82 0 -11 -9 -31 -21 -46 -17 -22 -28 -26 -70 -26 -41 0 -49 3 -49 19 0 10
-3 46 -6 80 l-7 61 46 0 c25 0 53 -3 62 -6z m-172 -80 c-2 -93 -23 -92 -23 1
0 62 3 76 12 67 7 -7 12 -36 11 -68z m-3833 30 c-11 -27 2 -64 21 -64 20 0 49
21 49 36 0 17 31 16 37 -2 2 -6 -6 -23 -17 -37 -43 -54 -110 -21 -110 53 0 29
4 40 15 40 11 0 12 -5 5 -26z m430 -7 c0 -53 -24 -79 -72 -75 -56 4 -75 33
-47 68 l20 25 -3 -24 c-4 -30 25 -51 50 -35 9 6 21 25 27 42 12 41 25 41 25
-1z m-1258 -49 c19 -35 30 -44 68 -53 50 -13 54 -29 14 -59 -22 -16 -24 -23
-18 -61 9 -61 0 -69 -47 -42 l-39 22 -39 -22 c-22 -13 -45 -23 -50 -23 -13 0
-14 40 -2 73 8 21 5 29 -20 53 -39 37 -37 51 12 59 35 6 43 12 62 51 11 24 24
44 28 44 4 0 18 -19 31 -42z m546 4 c-2 -9 -30 -23 -68 -34 -134 -40 -153 -35
-70 20 28 17 50 36 50 41 0 4 20 4 45 -2 32 -7 45 -15 43 -25z m1569 -6 c19
-38 26 -44 62 -50 51 -8 55 -35 12 -67 -25 -18 -28 -25 -20 -46 9 -25 12 -73
4 -73 -2 0 -24 10 -49 22 l-44 21 -42 -22 c-54 -28 -65 -18 -50 40 12 42 11
44 -21 69 -37 31 -33 47 17 56 26 5 42 17 65 50 16 24 33 44 37 44 5 0 18 -20
29 -44z m-504 2 c24 -18 53 -38 63 -44 36 -22 4 -28 -54 -10 -80 25 -123 47
-119 60 3 9 32 21 59 25 4 1 27 -14 51 -31z m-564 -55 c0 -21 -4 -47 -8 -58
-7 -17 -10 -14 -21 22 -14 46 -9 73 15 73 11 0 15 -10 14 -37z m-559 -42 c0
-10 5 -33 11 -51 11 -30 14 -32 45 -27 42 7 43 -3 4 -41 -16 -17 -30 -38 -30
-46 0 -20 -32 -21 -70 -1 -37 19 -38 33 -5 41 24 6 25 10 25 81 0 47 4 72 10
68 6 -3 10 -14 10 -24z m511 -84 c36 -69 46 -66 81 23 l22 58 29 -24 c33 -28
68 -30 147 -9 30 8 58 11 62 7 9 -9 0 -93 -12 -113 -7 -10 -11 -10 -24 0 -13
11 -16 9 -22 -13 -3 -14 -13 -31 -21 -38 -12 -10 -17 -9 -28 5 -16 22 -25 22
-25 -2 0 -11 -10 -27 -22 -35 -20 -14 -24 -14 -39 0 -15 13 -18 12 -33 -11
-18 -28 -66 -35 -66 -10 0 21 -19 19 -38 -6 -18 -21 -52 -18 -52 5 0 6 -4 18
-10 26 -7 12 -12 12 -29 -4 -19 -17 -20 -17 -41 7 -12 14 -28 23 -35 21 -7 -3
-25 10 -40 28 -16 18 -32 32 -38 30 -18 -6 -36 21 -43 63 -9 60 -1 69 44 45
50 -27 110 -26 153 3 38 27 36 28 80 -56z m584 40 c-7 -46 10 -77 41 -77 22 0
17 -14 -15 -37 l-28 -22 -47 43 c-25 24 -46 48 -46 54 0 6 15 12 33 14 25 2
35 10 47 35 8 18 16 33 18 33 2 0 0 -20 -3 -43z m-1325 -98 c7 -11 28 -28 48
-36 l37 -15 -23 -18 c-16 -14 -22 -29 -22 -60 l0 -42 -25 16 c-30 20 -49 20
-65 1 -21 -25 -33 -17 -27 19 4 25 1 37 -14 49 -27 24 -24 44 9 50 17 4 33 16
40 31 14 31 28 33 42 5z m1584 -4 c9 -14 25 -25 37 -25 27 0 35 -27 15 -49 -9
-10 -16 -32 -16 -49 0 -33 -16 -42 -38 -20 -10 10 -19 8 -42 -5 -30 -18 -34
-16 -31 16 1 9 -7 30 -18 46 -27 38 -26 47 4 55 14 4 31 18 37 31 14 32 31 32
52 0z m-1039 -125 c-9 -15 -104 -74 -176 -110 -68 -35 -105 -36 -126 -3 -17
26 -33 17 142 81 107 40 173 53 160 32z m570 -17 c33 -14 88 -36 123 -48 35
-12 65 -25 68 -28 13 -12 -18 -47 -42 -47 -45 0 -254 116 -254 142 0 15 45 8
105 -19z m-497 -7 c42 -22 119 -31 137 -16 10 9 15 9 15 1 0 -17 72 -13 142 9
34 11 68 20 73 20 6 0 35 -22 65 -49 30 -28 72 -60 93 -73 91 -54 109 -88 48
-88 -19 0 -57 22 -121 70 -51 39 -101 75 -111 81 -42 22 -15 -15 77 -106 52
-52 94 -101 91 -108 -2 -6 -17 -12 -32 -12 -24 0 -39 13 -86 70 -84 103 -136
161 -142 155 -3 -3 24 -54 60 -115 91 -153 98 -186 37 -171 -20 5 -34 25 -63
89 -21 45 -42 93 -46 107 -4 14 -14 34 -22 45 -14 19 -14 17 -8 -15 4 -19 18
-76 32 -127 25 -87 25 -93 9 -117 -41 -64 -72 -10 -81 146 -4 65 -12 115 -16
112 -5 -3 -9 -52 -9 -110 0 -119 -16 -174 -50 -174 -39 0 -43 36 -16 158 13
61 20 114 16 117 -4 3 -23 -36 -41 -86 -40 -108 -73 -152 -107 -143 -29 8 -25
22 45 147 61 109 70 166 14 82 -65 -96 -141 -175 -167 -175 -54 0 -39 30 72
141 104 105 130 145 48 76 -89 -76 -187 -137 -219 -137 -69 0 -52 30 57 98 46
29 99 66 118 82 40 34 50 35 88 16z" />
        <path d="M5060 7020 c0 -13 7 -20 20 -20 11 0 20 4 20 10 0 5 -9 14 -20 20
-17 9 -20 8 -20 -10z" />
        <path d="M5060 6961 c0 -11 39 -25 47 -18 3 3 2 10 -2 16 -8 13 -45 15 -45 2z" />
        <path d="M5065 6890 c3 -5 17 -10 31 -10 14 0 22 4 19 10 -3 6 -17 10 -31 10
-14 0 -22 -4 -19 -10z" />
        <path d="M5070 6816 c0 -11 10 -16 32 -16 34 0 29 13 -9 25 -17 5 -23 2 -23
-9z" />
        <path d="M5070 6740 c0 -5 16 -10 36 -10 21 0 33 4 29 10 -3 6 -19 10 -36 10
-16 0 -29 -4 -29 -10z" />
        <path d="M5088 6663 c7 -3 16 -2 19 1 4 3 -2 6 -13 5 -11 0 -14 -3 -6 -6z" />
        <path d="M5128 6663 c7 -3 16 -2 19 1 4 3 -2 6 -13 5 -11 0 -14 -3 -6 -6z" />
        <path d="M4430 6454 c0 -14 4 -23 10 -19 6 3 10 15 10 26 0 10 -4 19 -10 19
-5 0 -10 -12 -10 -26z" />
        <path d="M4916 6414 c-13 -34 -7 -64 14 -64 17 0 20 7 20 40 0 41 -21 57 -34
24z" />
        <path d="M4979 6428 c-3 -11 -5 -64 -2 -70 2 -4 10 -5 18 -1 21 7 20 73 0 73
-8 0 -15 -1 -16 -2z" />
        <path d="M5040 6390 c0 -27 3 -31 23 -28 16 2 22 10 22 28 0 18 -6 26 -22 28
-20 3 -23 -1 -23 -28z" />
        <path d="M5140 6380 c0 -5 5 -10 11 -10 5 0 7 5 4 10 -3 6 -8 10 -11 10 -2 0
-4 -4 -4 -10z" />
        <path d="M4387 6343 c-11 -10 -8 -83 3 -83 6 0 10 20 10 45 0 46 -2 50 -13 38z" />
        <path d="M4384 6065 c-8 -19 2 -45 16 -45 5 0 10 14 10 30 0 31 -16 41 -26 15z" />
        <path d="M4954 6196 c-9 -24 0 -51 19 -54 15 -3 18 2 15 29 -3 35 -24 51 -34
25z" />
        <path d="M4980 6051 c0 -22 5 -43 10 -46 6 -4 10 10 10 34 0 22 -4 43 -10 46
-6 4 -10 -10 -10 -34z" />
        <path d="M5010 6046 c0 -46 15 -70 26 -42 8 21 -4 86 -16 86 -6 0 -10 -20 -10
-44z" />
        <path d="M5060 6041 c0 -36 18 -59 34 -44 8 8 8 47 0 67 -12 32 -34 17 -34
-23z" />
        <path d="M5031 5894 c0 -11 3 -14 6 -6 3 7 2 16 -1 19 -3 4 -6 -2 -5 -13z" />
        <path d="M7483 5412 c-3 -12 -8 -20 -12 -18 -3 2 -7 -7 -7 -20 -1 -12 -11 -35
-23 -50 -32 -40 -25 -54 9 -17 28 31 57 109 45 121 -3 3 -8 -4 -12 -16z" />
        <path d="M5678 6100 c-3 -20 0 -30 9 -30 8 0 13 12 13 30 0 17 -4 30 -9 30 -5
0 -11 -13 -13 -30z" />
        <path d="M5627 5599 c-3 -13 -1 -19 6 -16 15 5 22 37 9 37 -5 0 -12 -9 -15
-21z" />
        <path d="M4780 5790 c0 -19 3 -21 12 -12 9 9 9 15 0 24 -9 9 -12 7 -12 -12z" />
        <path d="M4702 5778 c-14 -14 -16 -48 -2 -48 5 0 16 14 25 30 12 24 13 30 2
30 -7 0 -18 -5 -25 -12z" />
        <path d="M6042 5470 c0 -14 2 -19 5 -12 2 6 2 18 0 25 -3 6 -5 1 -5 -13z" />
        <path d="M4529 5596 c-8 -9 3 -86 12 -86 5 0 9 20 9 45 0 40 -7 54 -21 41z" />
        <path d="M4400 5570 c0 -5 5 -10 10 -10 6 0 10 5 10 10 0 6 -4 10 -10 10 -5 0
-10 -4 -10 -10z" />
        <path d="M4411 5506 c-1 -26 2 -37 9 -30 6 6 6 21 1 39 -9 30 -9 30 -10 -9z" />
        <path d="M4927 5625 c3 -14 10 -25 15 -25 13 0 6 43 -8 47 -7 2 -10 -6 -7 -22z" />
        <path d="M4995 5642 c-8 -8 -6 -52 3 -52 4 0 17 -3 30 -6 19 -6 22 -3 22 24 0
24 -5 31 -25 34 -13 3 -27 3 -30 0z" />
        <path d="M5126 5634 c-12 -33 -6 -54 18 -60 33 -8 46 2 46 36 0 38 -51 58 -64
24z" />
        <path d="M5222 5608 c2 -12 10 -23 18 -23 22 0 19 39 -3 43 -15 3 -18 -1 -15
-20z" />
        <path d="M4956 5468 c-29 -41 -15 -73 21 -50 16 10 21 64 6 69 -6 2 -18 -6
-27 -19z" />
        <path d="M5205 5458 c10 -44 13 -48 36 -48 23 0 23 1 5 45 -20 47 -50 49 -41
3z" />
        <path d="M4941 5304 c0 -11 3 -14 6 -6 3 7 2 16 -1 19 -3 4 -6 -2 -5 -13z" />
        <path d="M4729 5630 c-7 -19 1 -60 12 -60 10 0 10 14 0 50 -5 17 -9 20 -12 10z" />
        <path d="M4674 5617 c-9 -26 0 -77 12 -69 17 10 22 74 7 79 -7 3 -16 -2 -19
-10z" />
        <path d="M4371 5294 c0 -11 3 -14 6 -6 3 7 2 16 -1 19 -3 4 -6 -2 -5 -13z" />
        <path d="M5720 5241 c0 -17 5 -31 10 -31 6 0 10 11 10 24 0 14 -4 28 -10 31
-6 4 -10 -7 -10 -24z" />
        <path d="M5940 5175 c0 -9 6 -12 15 -9 8 4 12 10 9 15 -8 14 -24 10 -24 -6z" />
        <path d="M5898 5125 c-2 -19 0 -35 4 -35 4 0 8 16 8 35 0 19 -2 35 -4 35 -2 0
-6 -16 -8 -35z" />
        <path d="M4395 4905 c82 -16 174 -19 195 -5 10 7 -11 10 -70 10 -47 0 -110 2
-140 5 -53 4 -53 4 15 -10z" />
        <path d="M5407 4893 c18 -2 50 -2 70 0 21 2 7 4 -32 4 -38 0 -55 -2 -38 -4z" />
        <path d="M6824 4613 c-4 -16 -26 -98 -49 -183 l-41 -155 99 -3 c55 -1 102 0
105 2 9 10 -88 366 -100 366 -4 0 -11 -12 -14 -27z" />
        <path d="M4225 4697 l-40 -13 0 -157 0 -158 81 -4 c97 -6 137 12 168 71 41 77
18 201 -46 247 -33 24 -109 31 -163 14z" />
        <path d="M1545 3640 c-247 -4 -280 -7 -283 -21 -2 -9 5 -18 15 -20 10 -2 252
-2 538 1 485 5 520 6 523 23 3 13 -3 17 -23 17 -14 0 -130 1 -258 3 -127 1
-358 0 -512 -3z" />
        <path d="M2024 3525 c-11 -27 14 -35 112 -35 83 0 92 2 97 20 5 19 0 20 -68
20 -40 0 -86 3 -104 6 -24 5 -32 2 -37 -11z" />
        <path d="M1320 3516 c0 -8 7 -17 16 -20 28 -11 444 -7 465 4 47 25 12 30 -231
30 -207 0 -250 -2 -250 -14z" />
        <path d="M1770 3425 c0 -28 49 -36 209 -33 148 3 156 4 156 23 0 19 -8 20
-182 23 -160 2 -183 0 -183 -13z" />
        <path d="M1650 3420 c0 -5 7 -10 15 -10 8 0 15 5 15 10 0 6 -7 10 -15 10 -8 0
-15 -4 -15 -10z" />
        <path d="M7794 3641 c-2 -2 -4 -13 -4 -23 0 -17 22 -18 515 -18 508 0 515 0
515 20 0 23 58 21 -613 23 -225 1 -411 0 -413 -2z" />
        <path d="M8428 3533 c-120 -3 -128 -5 -128 -23 0 -19 8 -20 220 -20 204 0 220
1 229 19 9 16 5 19 -36 25 -25 3 -71 5 -102 4 -31 -1 -113 -4 -183 -5z" />
        <path d="M7880 3520 c0 -20 45 -31 123 -29 93 2 107 5 107 25 0 11 -23 14
-115 14 -67 0 -115 -4 -115 -10z" />
        <path d="M8003 3424 c-10 -28 18 -34 155 -34 133 0 172 8 172 35 0 13 -26 15
-160 15 -138 0 -161 -2 -167 -16z" />
        <path d="M8437 3433 c-12 -11 -8 -23 8 -23 8 0 15 7 15 15 0 16 -12 20 -23 8z" />
        <path d="M7846 2914 c-8 -21 1 -34 23 -34 22 0 45 25 36 40 -10 16 -52 12 -59
-6z" />
        <path d="M7982 2908 c4 -27 18 -32 42 -15 24 17 13 37 -20 37 -20 0 -25 -4
-22 -22z" />
        <path d="M8117 2911 c-6 -25 0 -31 30 -31 18 0 23 5 23 25 0 20 -5 25 -24 25
-15 0 -26 -7 -29 -19z" />
        <path d="M8277 2923 c-14 -13 -7 -32 14 -38 24 -8 41 9 32 32 -5 14 -35 18
-46 6z" />
        <path d="M2142 7985 c-56 -17 -107 -57 -134 -105 -18 -31 -29 -40 -50 -40 -34
0 -70 -14 -92 -35 -15 -16 -13 -21 36 -74 67 -72 161 -196 204 -270 59 -101
55 -98 92 -66 61 51 77 108 40 141 -33 29 -162 206 -177 242 -24 57 20 122 73
108 14 -3 30 -24 46 -58 21 -45 30 -53 55 -56 33 -3 92 28 102 53 3 9 -1 23
-10 33 -8 9 -24 36 -36 59 -34 68 -80 89 -149 68z" />
        <path d="M8125 7934 c11 -8 41 -30 66 -49 50 -37 99 -118 99 -165 0 -48 -51
-132 -105 -173 -45 -34 -55 -38 -95 -34 -52 6 -100 50 -100 93 0 81 74 187
150 218 22 9 40 18 40 21 0 13 -73 35 -115 35 -54 0 -88 -16 -132 -62 -117
-121 -65 -283 117 -366 111 -52 238 -24 307 67 44 57 59 113 44 170 -6 24 -9
46 -7 49 3 3 33 -4 66 -15 73 -24 77 -13 18 47 -90 90 -256 180 -333 179 -38
0 -39 -1 -20 -15z" />
        <path d="M1743 7695 c-88 -59 -196 -173 -231 -244 -45 -90 -40 -100 20 -46
106 96 198 116 278 60 70 -48 116 -146 99 -209 -22 -81 -114 -102 -190 -43
-61 46 -99 104 -107 163 l-7 49 -27 -35 c-65 -87 -57 -182 22 -261 59 -59 115
-75 186 -54 27 8 54 15 61 15 24 0 87 -66 109 -115 29 -61 30 -116 3 -174 -22
-50 -16 -64 27 -59 56 6 87 119 59 215 -16 53 -67 143 -83 143 -4 1 -18 9 -30
20 l-24 20 45 59 c57 77 75 141 58 218 -24 105 -118 188 -208 181 -37 -3 -43
-1 -43 17 0 11 11 38 25 60 41 67 33 71 -42 20z" />
        <path d="M8662 7680 c-29 -43 -43 -48 -62 -25 -17 20 -33 19 -54 -4 -16 -18
-16 -20 8 -39 15 -11 26 -25 26 -31 0 -7 -63 -75 -140 -153 -92 -93 -140 -149
-140 -163 0 -12 22 -45 48 -75 l48 -54 24 40 c21 34 59 79 236 282 l31 36 32
-27 c36 -30 52 -33 83 -16 20 11 19 13 -23 49 l-44 38 58 59 c55 57 57 60 39
76 -20 19 -95 47 -123 47 -11 0 -31 -17 -47 -40z" />
        <path d="M1150 7564 c-38 -35 -120 -179 -120 -211 0 -11 7 -13 26 -9 66 17 80
16 124 -6 25 -13 59 -42 76 -65 56 -73 136 -297 121 -336 -6 -15 -10 -15 -58
-1 -29 9 -150 58 -268 109 -267 115 -263 114 -294 81 -25 -27 -97 -156 -97
-174 0 -5 30 -10 68 -10 102 -1 193 -33 235 -83 37 -42 113 -213 119 -264 3
-27 0 -30 -27 -33 -16 -1 -118 25 -225 59 -228 72 -325 95 -361 86 -19 -5 -35
-23 -56 -64 -34 -63 -70 -169 -61 -178 3 -3 22 4 42 16 61 36 163 23 456 -55
274 -74 366 -89 376 -62 9 23 -28 176 -80 329 -23 70 -41 129 -39 131 2 2 48
-13 101 -34 53 -20 106 -40 117 -44 13 -5 16 -9 8 -14 -17 -10 -33 -58 -33
-96 0 -93 78 -204 176 -252 97 -48 264 -44 264 6 0 30 -25 41 -113 50 -134 14
-209 66 -237 164 -12 43 -11 49 7 74 15 20 31 28 64 32 l44 5 -2 63 c-3 125
-121 528 -199 684 -33 67 -88 138 -105 138 -5 0 -27 -16 -49 -36z" />
        <path d="M8914 7449 l-40 -40 -28 22 -28 22 -21 -22 -22 -22 30 -25 30 -25
-75 -71 c-41 -39 -112 -102 -157 -140 -46 -38 -83 -75 -83 -82 0 -17 52 -97
79 -121 22 -19 23 -19 33 -1 17 30 139 165 222 245 l76 73 35 -31 c39 -34 47
-36 77 -20 19 10 19 13 -22 54 l-41 42 60 49 c33 27 59 54 57 59 -4 14 -85 62
-116 69 -21 4 -34 -3 -66 -35z" />
        <path d="M8205 7136 c-60 -28 -127 -99 -143 -154 -26 -87 -8 -211 35 -240 22
-14 26 -14 40 1 15 14 15 21 -1 76 -19 67 -15 113 15 172 31 61 128 129 185
129 26 0 27 0 9 20 -24 27 -77 26 -140 -4z" />
        <path d="M8969 7107 c-88 -33 -139 -81 -178 -167 -42 -93 -15 -189 76 -270 84
-74 166 -92 219 -47 29 26 25 52 -6 42 -23 -7 -87 19 -118 48 -50 46 -68 122
-38 162 13 18 16 16 67 -28 29 -25 78 -60 110 -77 165 -88 289 17 206 175 -26
50 -86 114 -133 141 -54 32 -150 41 -205 21z m211 -102 c54 -28 68 -93 26
-120 -42 -28 -90 -30 -139 -6 -92 45 -97 76 -17 118 50 27 89 29 130 8z" />
        <path d="M1679 6861 c-74 -24 -99 -61 -99 -145 0 -71 12 -102 49 -121 47 -24
79 -19 117 19 37 37 45 63 17 51 -56 -24 -87 -8 -99 52 -12 63 65 95 116 48
24 -22 30 -19 30 14 0 60 -68 102 -131 82z" />
        <path d="M8363 6863 c-29 -6 -63 -49 -63 -80 0 -23 1 -23 22 -9 54 38 128 9
128 -50 0 -43 -32 -78 -66 -71 -32 6 -32 -16 1 -48 28 -29 88 -34 122 -10 47
33 54 136 13 202 -20 34 -86 74 -117 72 -10 -1 -28 -4 -40 -6z" />
        <path d="M9370 6718 c-72 -67 -252 -191 -312 -215 -43 -17 -44 -19 -20 -54 26
-40 77 -79 102 -79 13 0 53 24 89 54 82 66 182 132 216 140 34 9 77 -13 93
-47 20 -42 7 -66 -45 -80 -27 -7 -52 -21 -61 -35 -13 -20 -13 -27 2 -66 22
-58 51 -84 74 -68 9 6 37 23 62 36 25 13 54 34 65 46 52 57 -12 216 -107 266
-22 11 -28 22 -28 47 0 33 -37 108 -55 113 -5 2 -39 -24 -75 -58z" />
        <path d="M8690 6740 c-10 -18 -8 -26 10 -46 49 -51 2 -168 -87 -220 -39 -23
-61 -29 -134 -32 -72 -4 -91 -8 -115 -27 -27 -22 -28 -25 -12 -41 12 -12 39
-18 91 -22 207 -13 366 119 355 295 -4 69 -22 97 -70 108 -21 5 -29 2 -38 -15z" />
        <path d="M1113 4062 c-12 -7 -33 -54 -33 -73 0 -20 41 -49 69 -49 56 0 92 78
53 113 -19 18 -68 22 -89 9z" />
        <path d="M8896 4038 c-33 -46 -4 -108 49 -108 30 0 65 32 65 60 0 29 -44 70
-74 70 -14 0 -31 -9 -40 -22z" />
        <path d="M2521 2593 c-23 -16 -28 -52 -9 -71 18 -18 53 -14 73 8 37 40 -19 95
-64 63z" />
        <path d="M7523 2599 c-34 -12 -32 -65 3 -81 36 -17 59 0 59 42 0 37 -25 53
-62 39z" />
        <path d="M2702 2588 c-20 -20 -15 -66 9 -78 24 -13 69 10 69 36 0 45 -49 71
-78 42z" />
        <path d="M7320 2586 c-15 -19 -9 -56 11 -69 9 -5 28 -7 42 -3 48 12 32 86 -19
86 -12 0 -27 -7 -34 -14z" />
        <path d="M2918 2539 c-26 -15 -24 -75 3 -89 16 -9 26 -8 45 5 31 20 32 59 2
79 -26 19 -27 19 -50 5z" />
        <path d="M7110 2521 c-15 -28 -12 -46 8 -64 24 -22 45 -21 65 1 20 22 22 53 5
70 -19 19 -66 15 -78 -7z" />
        <path d="M3072 2388 c-18 -18 -14 -53 8 -73 17 -15 24 -16 45 -7 32 15 41 37
27 68 -13 27 -58 34 -80 12z" />
        <path d="M6952 2388 c-20 -20 -14 -66 9 -79 33 -17 69 3 69 39 0 33 -16 52
-45 52 -12 0 -26 -5 -33 -12z" />
        <path d="M3242 2274 c-27 -18 -30 -69 -5 -82 23 -14 62 6 69 34 11 43 -29 73
-64 48z" />
        <path d="M6790 2260 c-22 -42 19 -92 59 -71 23 13 31 40 20 69 -11 30 -64 31
-79 2z" />
        <path d="M3392 2158 c-19 -19 -15 -66 7 -78 25 -13 27 -13 45 6 21 20 21 70 0
78 -24 9 -39 7 -52 -6z" />
        <path d="M6642 2158 c-25 -31 -17 -76 13 -84 33 -8 55 11 55 47 0 40 -45 64
-68 37z" />
        <path d="M3556 2064 c-22 -22 -20 -61 4 -74 22 -12 60 -5 60 10 0 5 3 15 6 23
6 15 -28 57 -45 57 -5 0 -17 -7 -25 -16z" />
        <path d="M6474 2055 c-15 -23 -15 -27 0 -50 28 -43 76 -27 76 25 0 52 -48 68
-76 25z" />
        <path d="M3711 1966 c-7 -8 -11 -27 -9 -43 6 -51 88 -41 88 11 0 42 -53 63
-79 32z" />
        <path d="M6317 1962 c-24 -26 -21 -49 7 -67 45 -30 91 16 61 61 -19 29 -46 31
-68 6z" />
    </g>
</svg>